<?xml version="1.0" encoding="UTF-8" standalone="no"?>
<!-- Created with Inkscape (http://www.inkscape.org/) -->

<svg
   xmlns:dc="http://purl.org/dc/elements/1.1/"
   xmlns:cc="http://creativecommons.org/ns#"
   xmlns:rdf="http://www.w3.org/1999/02/22-rdf-syntax-ns#"
   xmlns:svg="http://www.w3.org/2000/svg"
   xmlns="http://www.w3.org/2000/svg"
   xmlns:sodipodi="http://sodipodi.sourceforge.net/DTD/sodipodi-0.dtd"
   xmlns:inkscape="http://www.inkscape.org/namespaces/inkscape"
   width="560"
   height="90"
   id="svg3773"
   version="1.1"
   inkscape:version="0.91 r13725"
   sodipodi:docname="logo_path.svg">
  <defs
     id="defs3775">
    <style
       type="text/css"
       id="style3338"><![CDATA[
		@font-face {
			font-family: '215000E';
			src: url('215000E.eot') /* EOT file for IE */;
			    src: url('215000E.eot?#iefix') format('embedded-opentype'),
         url('215000E.woff2') format('woff2'),
         url('215000E.woff') format('woff'),
         url('215000E.ttf') format('truetype'),
         url('215000E.svg#215000eregular') format('svg');

		}
      ]]></style>
  </defs>
  <sodipodi:namedview
     id="base"
     pagecolor="#ffffff"
     bordercolor="#666666"
     borderopacity="1.0"
     inkscape:pageopacity="0.0"
     inkscape:pageshadow="2"
     inkscape:zoom="1.5"
     inkscape:cx="292.6756"
     inkscape:cy="31.035619"
     inkscape:document-units="px"
     inkscape:current-layer="layer1"
     showgrid="false"
     inkscape:window-width="1920"
     inkscape:window-height="1014"
     inkscape:window-x="0"
     inkscape:window-y="27"
     inkscape:window-maximized="1" />
  <metadata
     id="metadata3778">
    <rdf:RDF>
      <cc:Work
         rdf:about="">
        <dc:format>image/svg+xml</dc:format>
        <dc:type
           rdf:resource="http://purl.org/dc/dcmitype/StillImage" />
        <dc:title></dc:title>
      </cc:Work>
    </rdf:RDF>
  </metadata>
  <g
     id="layer1"
     inkscape:label="Layer 1"
     inkscape:groupmode="layer">
    <g
       transform="scale(1.022585,0.9779138)"
       style="font-style:normal;font-variant:normal;font-weight:normal;font-stretch:normal;font-size:58.01446152px;line-height:125%;font-family:Lassus;-inkscape-font-specification:Lassus;text-align:start;letter-spacing:0px;word-spacing:0px;writing-mode:lr-tb;text-anchor:start;fill:#000000;fill-opacity:1;stroke:none"
       id="text2993">
      <path
         d="m 10.61384,19.72106 q 1.019786,-0.368256 1.07644,-1.019786 l -0.141636,-0.849821 0.254946,-0.198292 0.02833,-0.226618 -0.169964,-0.65153 1.416369,0.113309 0.453238,0.453238 -0.339929,5.580493 -0.02833,0.226619 Q 11.520316,22.242196 10.72715,21.222411 l 0.254946,-0.198292 0.02833,-0.198292 -0.396583,-1.104767 z m 4.589035,-2.464482 0.02833,-0.198291 q 5.212237,-0.396584 12.322408,-0.396584 4.645689,0 10.112872,0.169965 0.198292,0 0.198292,1.784624 0,1.784625 -0.198292,5.325546 -0.623202,0.169965 -2.011243,0.169965 -1.388042,0 -3.540922,-0.169965 l -0.963131,-0.05665 -0.764839,38.72352 q -0.02833,0.226619 -3.795868,0.226619 -2.039571,0 -5.155582,-0.05665 l -0.198292,-5.155582 0.254947,0 -0.226619,-0.226619 0.02833,-0.198292 0.708185,-33.171354 -6.486969,-0.05666 q -0.339929,-0.623202 -0.339929,-2.464482 0,-1.50135 0.226619,-3.795868 l 0.02833,-0.226619 -0.226619,-0.226619 z"
         style="fill:#363636;fill-opacity:1"
         id="path3350" />
      <path
         d="m 29.39489,26.236356 0,-1.359714 0.566547,0 0,1.359714 -0.566547,0 z m 7.648391,24.503178 0.254946,-1.359714 -0.254946,-0.821494 q 0.53822,0 0.53822,-1.61466 l 0.254946,0 -0.254946,-0.821494 0.254946,-0.283274 0,-0.254946 -0.254946,-0.821494 0.254946,-0.283274 -0.53822,-0.53822 0,-0.283273 0.53822,0 0,-0.254947 -0.254946,-0.283273 0.254946,-0.254947 0,-0.283274 -0.254946,-1.104767 0.254946,-0.254947 0.254947,0 -0.254947,-0.283273 0,-0.254947 0.53822,-0.566547 -0.53822,-1.61466 q -0.793166,0 -0.793166,-0.538221 0,-0.566547 1.048113,-0.566547 l -0.254947,-0.254946 0,-0.283274 0.53822,-0.53822 -0.793166,-3.540922 1.61466,-0.53822 0,-0.283274 -1.359714,-2.181208 0,-0.793166 0.254947,-0.283274 -0.254947,-0.283273 0,-0.254947 q 1.076441,-1.473023 1.076441,-2.464481 l -0.821494,-0.821494 0.821494,-0.254947 -0.538221,-0.53822 q 2.776083,-5.0706 10.622766,-7.620063 l 3.540921,-0.566548 2.974375,0 q 5.155582,0 10.622765,3.824196 l 2.436154,2.719428 0.283274,-0.283274 0.283273,0 0.254947,1.926261 0.283273,-0.283273 0.538221,0 0,0.53822 -0.283274,0.283273 0,0.254947 0.283274,0.283274 0.283273,0 0.254947,-0.283274 0,0.821494 -0.254947,0.283273 1.897934,3.540922 -0.283273,1.61466 0.566547,0.566548 q 0,-1.104768 0.53822,-1.104768 l -0.53822,-2.181207 1.07644,0 0.53822,0.566547 0,1.61466 -1.07644,0.283274 0.254947,0.254946 0,0.566548 -1.076441,0.254946 0,0.821494 0.821494,0 -0.53822,0.53822 0.254946,5.438856 0,4.107469 -0.254946,0.254947 0,0.283273 -23.964958,-0.53822 q 0,6.062058 5.183909,7.620064 l 1.359714,0.254946 q 4.192452,0 8.979778,-4.362415 l 8.158283,7.365117 q -5.778784,8.158283 -19.319269,8.158283 l 0,0.254947 Q 44.465053,60.540805 40.555875,56.999884 37.298227,53.883873 37.298227,51.022808 l -0.254946,-0.283274 z m 11.954152,-16.316567 0.254946,0 10.084545,0.254946 0,-0.254946 -0.53822,-2.181208 0.254946,-0.283274 0,-0.254946 q -0.934803,-4.362416 -4.362415,-4.362416 l -0.53822,0 q -3.937505,0 -5.155582,7.081844 z m 17.959555,-15.523401 0,-0.53822 q 0.821493,-1.359714 1.897934,-1.359714 l 0,0.821494 q 0.53822,0 0.821493,-2.181208 l 0.821494,-0.283274 1.614661,0.53822 0.283273,0 -0.283273,-0.254946 0,-0.53822 0.821493,0.53822 0.283274,-0.283274 0.254947,0.283274 0,3.795868 -0.254947,0 -0.53822,-0.53822 0.254946,-0.283274 0,-0.254946 -0.254946,0 q -0.566547,0 -0.566547,1.359714 l -0.254947,0.283274 -0.821494,0 -0.821493,-0.821494 q 2.181207,-1.133095 2.181207,-1.642988 l 0,-0.283274 q -1.359714,0 -1.359714,-0.53822 l -2.181207,2.181208 -0.821494,-0.53822 -0.53822,0.53822 -0.53822,0 z m 3.795868,5.977076 0.566547,-0.53822 0.53822,0 0,0.53822 -1.104767,0 z m 2.181207,-1.359714 0,-0.254946 0.821494,0 0,0.821493 -0.283273,0 -0.538221,-0.566547 z m 0.283274,6.005403 0.53822,0.53822 0,-1.359714 -0.53822,0.53822 0,0.283274 z m 0,-4.362415 0.821494,0 0,0.53822 -0.283274,0 -0.53822,-0.53822 z m 0.821494,-10.622766 0,-0.53822 0.53822,-0.53822 0,1.07644 -0.53822,0 z"
         style="fill:#363636;fill-opacity:1"
         id="path3352" />
      <path
         d="m 73.217336,60.285859 q 2.80441,-43.312554 3.370957,-45.748709 l 0.254946,0 11.359277,0.878149 0.509893,0.679857 -0.254946,0.283274 0,0.283273 Q 85.56807,62.155466 85.086505,62.155466 73.217336,60.994043 73.217336,60.285859 Z m 0.991458,4.390743 0.254946,-1.359714 0.906476,-1.048113 9.234724,1.784625 -0.226619,1.161422 -0.339929,-0.05665 -9.829598,-0.481565 z"
         style="fill:#363636;fill-opacity:1"
         id="path3354" />
      <path
         d="m 88.740739,60.285859 q 2.80441,-43.312554 3.370957,-45.748709 l 0.254947,0 11.359277,0.878149 0.50989,0.679857 -0.25494,0.283274 0,0.283273 q -2.8894,45.493763 -3.37096,45.493763 -11.869171,-1.161423 -11.869171,-1.869607 z m 0.991458,4.390743 0.254946,-1.359714 0.906476,-1.048113 9.234721,1.784625 -0.226616,1.161422 -0.339929,-0.05665 -9.829598,-0.481565 z"
         style="fill:#363636;fill-opacity:1"
         id="path3356" />
      <path
         d="m 98.400372,26.236356 0,-1.359714 0.566547,0 0,1.359714 -0.566547,0 z m 7.648388,24.503178 0.25495,-1.359714 -0.25495,-0.821494 q 0.53822,0 0.53822,-1.61466 l 0.25495,0 -0.25495,-0.821494 0.25495,-0.283274 0,-0.254946 -0.25495,-0.821494 0.25495,-0.283274 -0.53822,-0.53822 0,-0.283273 0.53822,0 0,-0.254947 -0.25495,-0.283273 0.25495,-0.254947 0,-0.283274 -0.25495,-1.104767 0.25495,-0.254947 0.25495,0 -0.25495,-0.283273 0,-0.254947 0.53822,-0.566547 -0.53822,-1.61466 q -0.79317,0 -0.79317,-0.538221 0,-0.566547 1.04812,-0.566547 l -0.25495,-0.254946 0,-0.283274 0.53822,-0.53822 -0.79317,-3.540922 1.61466,-0.53822 0,-0.283274 -1.35971,-2.181208 0,-0.793166 0.25495,-0.283274 -0.25495,-0.283273 0,-0.254947 q 1.07644,-1.473023 1.07644,-2.464481 l -0.82149,-0.821494 0.82149,-0.254947 -0.53822,-0.53822 q 2.77608,-5.0706 10.62276,-7.620063 l 3.54093,-0.566548 2.97437,0 q 5.15558,0 10.62277,3.824196 l 2.43615,2.719428 0.28327,-0.283274 0.28328,0 0.25494,1.926261 0.28328,-0.283273 0.53822,0 0,0.53822 -0.28328,0.283273 0,0.254947 0.28328,0.283274 0.28327,0 0.25495,-0.283274 0,0.821494 -0.25495,0.283273 1.89794,3.540922 -0.28328,1.61466 0.56655,0.566548 q 0,-1.104768 0.53822,-1.104768 l -0.53822,-2.181207 1.07644,0 0.53822,0.566547 0,1.61466 -1.07644,0.283274 0.25495,0.254946 0,0.566548 -1.07644,0.254946 0,0.821494 0.82149,0 -0.53822,0.53822 0.25495,5.438856 0,4.107469 -0.25495,0.254947 0,0.283273 -23.96496,-0.53822 q 0,6.062058 5.18391,7.620064 l 1.35971,0.254946 q 4.19246,0 8.97978,-4.362415 l 8.15829,7.365117 q -5.77879,8.158283 -19.31927,8.158283 l 0,0.254947 q -8.61153,-1.614661 -12.5207,-5.155582 -3.25765,-3.116011 -3.25765,-5.977076 l -0.25495,-0.283274 z m 11.95415,-16.316567 0.25495,0 10.08455,0.254946 0,-0.254946 -0.53822,-2.181208 0.25494,-0.283274 0,-0.254946 q -0.9348,-4.362416 -4.36241,-4.362416 l -0.53822,0 q -3.93751,0 -5.15559,7.081844 z m 17.95956,-15.523401 0,-0.53822 q 0.82149,-1.359714 1.89793,-1.359714 l 0,0.821494 q 0.53822,0 0.8215,-2.181208 l 0.82149,-0.283274 1.61466,0.53822 0.28328,0 -0.28328,-0.254946 0,-0.53822 0.8215,0.53822 0.28327,-0.283274 0.25495,0.283274 0,3.795868 -0.25495,0 -0.53822,-0.53822 0.25495,-0.283274 0,-0.254946 -0.25495,0 q -0.56655,0 -0.56655,1.359714 l -0.25495,0.283274 -0.82149,0 -0.82149,-0.821494 q 2.18121,-1.133095 2.18121,-1.642988 l 0,-0.283274 q -1.35972,0 -1.35972,-0.53822 l -2.18121,2.181208 -0.82149,-0.53822 -0.53822,0.53822 -0.53822,0 z m 3.79587,5.977076 0.56654,-0.53822 0.53822,0 0,0.53822 -1.10476,0 z m 2.18121,-1.359714 0,-0.254946 0.82149,0 0,0.821493 -0.28327,0 -0.53822,-0.566547 z m 0.28327,6.005403 0.53822,0.53822 0,-1.359714 -0.53822,0.53822 0,0.283274 z m 0,-4.362415 0.82149,0 0,0.53822 -0.28327,0 -0.53822,-0.53822 z m 0.82149,-10.622766 0,-0.53822 0.53822,-0.53822 0,1.07644 -0.53822,0 z"
         style="fill:#363636;fill-opacity:1"
         id="path3358" />
      <path
         d="m 140.09826,18.248036 0,-0.53822 0.53822,-0.509892 q 1.30306,0.02833 1.30306,0.509892 l 0.28328,-0.254946 3.08768,0 q 3.68256,-0.708184 3.68256,-1.558006 l 1.84128,0 0.48156,0.509893 0.28328,-0.254946 0.50989,0 0.79317,0.509892 0,-1.303059 1.04811,0 q 0,0.708185 1.84128,1.048113 l 0.50989,-0.509893 0.28328,0.254947 0.25494,-0.254947 0.25495,0 1.30306,0.254947 0.50989,-0.53822 0.25495,0.283273 0.25494,0 0.28328,-0.283273 0.25494,0 3.39929,0.53822 1.33138,-0.254947 3.90918,0 0.25495,0.254947 0.25494,-0.254947 2.8894,0 1.04811,0.254947 0.25495,-0.254947 0.25494,0 1.55801,0.254947 0,47.02344 -0.25495,3.937505 -0.53822,0 q -0.9348,-0.793166 -1.78462,-0.793166 l -0.79317,0.509892 -0.28327,0 0.28327,-0.254946 0,-0.53822 -1.04811,-0.509893 -0.28328,0.254947 -0.25494,-0.254947 0,-0.254946 0.25494,-0.283274 0,-0.254946 -0.50989,0 -0.53822,1.586333 -0.50989,0 0,-0.793167 -0.25495,0 0,0.509893 -0.28327,0 q -1.55801,0 -1.55801,-1.048113 l -0.25494,0 0,0.53822 -1.30306,0 -0.79317,-0.53822 -1.558,0 -0.25495,0.283274 -0.28327,0 -1.30306,-1.048113 q 0,0.764839 -0.5099,0.764839 l -0.28327,0 q -0.50989,0 -0.50989,-0.764839 l -0.28328,0 q 0,0.764839 -0.50989,0.764839 l -0.76484,0 q -0.50989,0 -0.50989,-0.764839 l -0.28328,0 q 0,0.991458 -1.84127,1.303059 l 0,-0.254946 0.28327,-0.283274 0,-0.254946 -2.63445,-0.793167 q -1.30306,0 -1.30306,-0.509892 l 0.5099,-1.048113 0,-0.254947 -0.25495,0 q 0,0.764839 -0.50989,0.764839 l -0.50989,0 q -0.53822,0 -0.53822,-1.019785 l -0.25495,0 q 0,0.65153 -1.30306,0.764839 l -0.53822,-0.509893 -0.50989,0.509893 -0.79317,-0.764839 -0.25495,0.254946 0,0.254947 -1.58633,-0.764839 -0.25495,0.254946 0,0.254946 -1.04811,-0.509892 q 0,0.566547 -1.27473,0.764839 l -0.25495,-0.254947 0,-0.509892 0.25495,-0.283274 -0.50989,-0.764839 0.25494,-1.812952 0,-3.654231 0.25495,-1.84128 0.25495,0 0.79316,0.793167 0,3.370957 5.72213,0 0,-17.477989 q 0,-5.778785 2.86107,-5.778785 2.63444,0 2.63444,5.240565 l 0,10.169527 -0.53822,0.793166 0.53822,0.53822 0,6.515296 5.75046,0 0,-14.900198 q 0,-8.611522 3.14434,-8.611522 2.60612,0 2.60612,6.288677 l -0.28328,2.861065 0.28328,0.254946 0,0.254947 -0.28328,0.283273 0.28328,1.303059 0,12.549027 1.30306,-0.283274 0.25494,0 0.79317,0.53822 0.50989,-0.53822 1.04811,0.283274 1.04812,-0.283274 0.79316,0 0.53822,-0.509892 0,-0.538221 -0.53822,0 0,-17.223043 q 0,-10.736074 -8.35657,-10.736074 -3.28598,0 -5.49551,1.841279 -1.72797,-1.841279 -4.70235,-1.841279 -1.92626,0 -3.90917,1.048112 l -0.53822,-0.509892 -5.46719,0 0,13.568812 -0.50989,0.53822 -0.28327,0 -0.5099,-0.53822 0,-0.509893 0.25495,-0.254946 -0.50989,-2.606119 0.25494,0 -1.30306,-9.433015 0.25495,0 -0.53822,-1.812952 0.28327,-0.283274 0,-0.254946 -0.53822,-2.322845 0.25495,-0.283274 0,-0.254946 -0.50989,-2.889392 0.25494,0 q -0.53822,-1.161423 -0.53822,-3.370958 z m 2.63445,26.911005 0.25495,-0.793166 -0.25495,-0.793166 0.25495,-0.254947 0.28327,0 0.50989,0.53822 0,1.558006 -0.50989,0 -0.28327,-0.254947 -0.25495,0 z m 0.25495,2.889393 0.28327,-0.254947 0,-0.283274 -0.28327,-1.303059 0.28327,-0.254946 0.22662,0 0.28327,0.254946 0,3.370958 -0.50989,0 -0.28327,-1.529678 z m 10.96269,14.333651 0,1.303059 0.25495,0 0,-1.303059 -0.25495,0 z m 14.10703,2.889392 0,0.254946 0.25495,0 0.28327,-0.793166 0,-0.254947 -0.28327,0 -0.25495,0.793167 z"
         style="fill:#363636;fill-opacity:1"
         id="path3360" />
      <path
         d="m 170.01197,26.236356 0,-1.359714 0.56654,0 0,1.359714 -0.56654,0 z m 7.64839,24.503178 0.25494,-1.359714 -0.25494,-0.821494 q 0.53822,0 0.53822,-1.61466 l 0.25494,0 -0.25494,-0.821494 0.25494,-0.283274 0,-0.254946 -0.25494,-0.821494 0.25494,-0.283274 -0.53822,-0.53822 0,-0.283273 0.53822,0 0,-0.254947 -0.25494,-0.283273 0.25494,-0.254947 0,-0.283274 -0.25494,-1.104767 0.25494,-0.254947 0.25495,0 -0.25495,-0.283273 0,-0.254947 0.53822,-0.566547 -0.53822,-1.61466 q -0.79316,0 -0.79316,-0.538221 0,-0.566547 1.04811,-0.566547 l -0.25495,-0.254946 0,-0.283274 0.53822,-0.53822 -0.79316,-3.540922 1.61466,-0.53822 0,-0.283274 -1.35972,-2.181208 0,-0.793166 0.25495,-0.283274 -0.25495,-0.283273 0,-0.254947 q 1.07644,-1.473023 1.07644,-2.464481 l -0.82149,-0.821494 0.82149,-0.254947 -0.53822,-0.53822 q 2.77609,-5.0706 10.62277,-7.620063 l 3.54092,-0.566548 2.97438,0 q 5.15558,0 10.62276,3.824196 l 2.43615,2.719428 0.28328,-0.283274 0.28327,0 0.25495,1.926261 0.28327,-0.283273 0.53822,0 0,0.53822 -0.28327,0.283273 0,0.254947 0.28327,0.283274 0.28328,0 0.25494,-0.283274 0,0.821494 -0.25494,0.283273 1.89793,3.540922 -0.28327,1.61466 0.56654,0.566548 q 0,-1.104768 0.53822,-1.104768 l -0.53822,-2.181207 1.07644,0 0.53822,0.566547 0,1.61466 -1.07644,0.283274 0.25495,0.254946 0,0.566548 -1.07644,0.254946 0,0.821494 0.82149,0 -0.53822,0.53822 0.25495,5.438856 0,4.107469 -0.25495,0.254947 0,0.283273 -23.96495,-0.53822 q 0,6.062058 5.18391,7.620064 l 1.35971,0.254946 q 4.19245,0 8.97978,-4.362415 l 8.15828,7.365117 q -5.77878,8.158283 -19.31927,8.158283 l 0,0.254947 q -8.61152,-1.614661 -12.5207,-5.155582 -3.25765,-3.116011 -3.25765,-5.977076 l -0.25494,-0.283274 z m 11.95415,-16.316567 0.25495,0 10.08454,0.254946 0,-0.254946 -0.53822,-2.181208 0.25495,-0.283274 0,-0.254946 q -0.93481,-4.362416 -4.36242,-4.362416 l -0.53822,0 q -3.9375,0 -5.15558,7.081844 z m 17.95955,-15.523401 0,-0.53822 q 0.8215,-1.359714 1.89794,-1.359714 l 0,0.821494 q 0.53822,0 0.82149,-2.181208 l 0.8215,-0.283274 1.61466,0.53822 0.28327,0 -0.28327,-0.254946 0,-0.53822 0.82149,0.53822 0.28327,-0.283274 0.25495,0.283274 0,3.795868 -0.25495,0 -0.53822,-0.53822 0.25495,-0.283274 0,-0.254946 -0.25495,0 q -0.56654,0 -0.56654,1.359714 l -0.25495,0.283274 -0.82149,0 -0.8215,-0.821494 q 2.18121,-1.133095 2.18121,-1.642988 l 0,-0.283274 q -1.35971,0 -1.35971,-0.53822 l -2.18121,2.181208 -0.8215,-0.53822 -0.53822,0.53822 -0.53822,0 z m 3.79587,5.977076 0.56655,-0.53822 0.53822,0 0,0.53822 -1.10477,0 z m 2.18121,-1.359714 0,-0.254946 0.82149,0 0,0.821493 -0.28327,0 -0.53822,-0.566547 z m 0.28327,6.005403 0.53822,0.53822 0,-1.359714 -0.53822,0.53822 0,0.283274 z m 0,-4.362415 0.8215,0 0,0.53822 -0.28328,0 -0.53822,-0.53822 z m 0.8215,-10.622766 0,-0.53822 0.53822,-0.53822 0,1.07644 -0.53822,0 z"
         style="fill:#363636;fill-opacity:1"
         id="path3362" />
      <path
         d="m 213.52281,71.730118 0,-53.170481 0.56655,-0.566547 1.38804,0.283274 q 0,-0.566548 1.95459,-0.849821 l 0.56655,0.566547 3.90917,0 0.56655,0.566547 1.41637,-0.283273 1.95459,0.283273 0.56655,-0.566547 0.82149,0.283274 0.84982,-0.283274 0.28328,0.283274 0.28327,-0.283274 0.28327,0.283274 0.8215,0.283273 0,0.283274 0.28327,-0.283274 1.38804,0.283274 0.28328,0 q 1.10476,-0.849821 3.65423,-1.133095 l 0.56654,0.566548 1.10477,-0.566548 3.93751,0.283274 0.25494,0 1.41637,-0.283274 0.56655,0.566548 0.53822,-0.566548 0.84982,0.849821 1.1331,-0.283273 q 0.25494,1.954589 1.67131,1.954589 l 0.56655,0.849821 -0.56655,0.821494 0.56655,1.133095 -0.28328,0.821493 0.28328,0 1.10477,-0.254946 0.84982,0 0,0.53822 -1.1331,0.566548 -0.82149,-0.283274 0,0.283274 -0.28328,1.133095 q 0.53822,3.002701 1.10477,3.625903 l 0,0.283274 -0.28327,1.954589 q 3.65423,4.249106 3.65423,6.430314 l 0,0.566547 -0.56655,0.849821 q 0.79317,1.359714 2.52114,2.237863 l 0,0.283274 q -0.45324,0 -0.84982,1.954588 l -1.38804,0.566548 0,0.566547 0.56654,0.821494 0,0.566548 -0.28327,0.283273 1.10477,1.671316 q -0.73652,0.113309 -1.10477,1.416368 0.70818,0 1.38804,1.954589 l 0,0.283274 -0.56655,0.821494 0.56655,0.566547 0,1.133095 -1.38804,1.388041 0.56655,0.566548 -0.28328,0.283274 0,0.283273 -0.28327,-0.283273 -0.56655,0 0,0.283273 0.56655,0.821494 -0.56655,0.566548 0.28328,0.283273 -0.28328,0.283274 -0.28327,0 -0.28328,-1.954589 -0.28327,0 q 0,1.388042 -0.82149,1.388042 l 0,0.283273 q 1.38804,0 1.67131,1.104768 l -0.56655,0 -1.10476,-0.53822 -0.28328,0 0,0.254946 0.56655,0 0,0.849821 -2.23786,0 0,0.283274 0.53822,0 0,0.566548 q -0.76484,0 -2.52114,2.492809 l 0.56655,0 0,0.283273 q 0,0.849821 -2.23786,0.849821 l 0.28327,0.283274 0,0.53822 -0.28327,0.283274 0,0.283274 q 0.84982,0 0.84982,0.566547 l -0.56655,0.566548 -0.28327,0 -0.28328,-0.283274 q -1.35971,0.08498 -2.80441,3.625904 l -0.25494,0 -0.28328,-0.283274 -0.56654,0.566548 -0.56655,0 -0.28328,-0.283274 -0.28327,0 -1.38804,1.133095 -0.28327,-0.283274 -0.28328,0 -1.10477,0.283274 -3.08768,-0.849821 q 0,0.708184 -1.41637,0.849821 l -0.82149,0.283274 0,0.283273 -1.41637,-0.283273 -2.23786,0 -1.67132,0.821493 q 0,-0.53822 -1.10477,-0.53822 l 0,-0.849821 -0.28327,0 -1.13309,0.849821 q -0.70819,0 -0.84983,-1.133095 l -0.25494,0 0,0.283274 0.25494,0.849821 -0.25494,0.254947 -0.56655,0 0,-0.53822 -0.28327,0 -0.84982,0.283273 -0.28328,-1.416368 -0.25494,0 q 0,1.444696 -0.84983,1.671315 l -0.56654,-0.53822 -0.28328,0.283273 -0.28327,0 -1.95459,-1.416368 q 0,1.671315 -1.38804,1.671315 l -0.56655,-1.104768 z m 2.23786,-7.563409 0.84983,0.849821 0.28327,-0.849821 -0.28327,-0.283273 -0.84983,0.283273 z m 0.28328,-9.48967 2.80441,0 0.28327,0.254946 0.28328,-0.254946 3.05935,0 0.28328,0.254946 0.28327,-0.254946 3.08768,0 0.28328,0.254946 0.25494,-0.254946 0.56655,0 0.28327,0.254946 0.28328,-0.254946 0.84982,0 0.82149,0.53822 q 0,-0.53822 0.84982,-0.53822 l 0,-6.175367 0.28328,-1.954589 Q 229.4428,46.1505 228.9329,45.159041 l 0,-15.126817 1.95459,-1.954589 1.10477,0 q 1.58633,0 2.80441,2.237863 l 0,5.863766 q 0,10.084545 -1.38804,10.084545 l -1.1331,0.283274 0,8.384902 14.277,0.283274 0,-6.996861 0.56655,0 0,-0.566548 q -0.56655,0 -0.56655,-0.821494 -1.52968,0 -2.52114,-1.671315 l 0,-12.605681 0.28328,-3.087684 q -1.07644,-8.384902 -5.32555,-8.384902 0,-0.396584 -2.77608,-0.566548 -3.05936,0 -7.56341,1.954589 l -0.28327,-1.388041 -3.37096,0 -8.3849,-0.283274 0,7.280135 q 1.2464,0 2.23786,1.954589 l 0,12.860628 q -0.48157,3.370957 -2.52114,3.370957 l 0,6.996861 -0.28327,1.416369 z m 3.90918,9.48967 0,0.566548 0.28327,0.283273 0.56655,0 0,-0.283273 -0.56655,-0.566548 -0.28327,0 z m 4.47572,-6.430314 0.56655,0 0,-0.283273 -0.28328,-0.821494 -0.28327,0 0,1.104767 z m 3.37096,5.863767 0,1.133095 0.28327,0 0,-1.133095 -0.28327,0 z m 0.56655,-5.863767 0.56654,0.566548 0.25495,-0.283274 0,-0.283274 -0.25495,-0.283273 -0.56654,0 0,0.283273 z m 3.05935,6.713588 0,1.104768 0.28328,0 0,-1.104768 -0.28328,0 z m 15.12682,-6.713588 0.28327,0 0,-1.671315 -0.28327,0 0,1.671315 z"
         style="fill:#363636;fill-opacity:1"
         id="path3364" />
      <path
         d="m 230.20764,31.335283 1.21808,-0.594875 0,0.594875 -0.59487,0.594875 -0.62321,-0.594875 z m 3.00271,6.232022 1.47302,0 0,0.594875 -0.87815,0 -0.59487,-0.594875 z m 2.37949,0 0,-0.594875 1.47303,-0.283273 0.3116,0 0,0.283273 -0.90648,0.906476 -0.87815,-0.311601 z m 1.10477,-2.662773 0,-0.594875 1.18975,0.311601 0.3116,-0.311601 0.28328,0 q 3.28597,0.736512 3.28597,1.18975 l -0.3116,0.311601 -0.28327,0 -1.78463,-0.311601 -1.50135,0.311601 q 0,-0.764839 -1.18975,-0.906476 z m 0.90648,-1.473023 0,-0.906476 0.28327,0 0.90648,0.311601 0,0.594875 -1.18975,0 z m 0.42491,23.879976 q 0.39658,0 0.50989,0.169964 l 0.0567,-0.08498 0,-0.08498 0.3116,0.169964 0.0567,-0.08498 0.76484,0 0.0567,0.08498 0.0567,-0.08498 0.11331,0 0.085,0.08498 0.0567,-0.08498 0.0567,0 0.0567,0.08498 0.25494,-0.08498 0,-0.08498 -0.19829,-0.08498 -0.0566,0.08498 -0.56655,-0.169964 -0.0567,0.08498 -0.3116,0 -0.0566,-0.08498 -0.0567,0.08498 -0.82149,0 -0.0567,-0.08498 -0.25495,0.08498 0,0.08498 z m 1.04811,-23.285101 0,-0.594875 0.3116,0 0.59488,0.594875 -0.3116,0.283273 -0.28328,0 -0.3116,-0.283273 z m 0.19829,25.268017 0.0567,0 0.19829,-0.08498 0,-0.08498 -0.0567,0 -0.19829,0.08498 0,0.08498 z m 0.25495,0.736512 0,-0.08498 0.0566,0 0.1983,0.08498 -0.14164,0.141637 -0.11331,-0.141637 z m 0.14164,-30.480255 0,-0.594874 0.90647,0 0,0.594874 -0.90647,0 z m 0.3116,-2.379499 0.87815,-0.283274 0.90647,0.283274 0,0.906476 q -1.558,0 -1.78462,-0.906476 z m 0.53822,30.225308 0.73651,0.08498 0.085,-0.08498 0.0567,0 0.16996,0.169964 0.085,-0.08498 0.0567,0 0.0566,0.08498 0.0567,-0.08498 0.0567,0 0.085,0.08498 0.0567,0 0.25494,-0.08498 0,0.08498 0.0567,-0.08498 0.0566,0 0.0567,0.08498 0.0567,-0.08498 q 0.36826,0.05665 0.36826,0.169964 l 0.085,-0.08498 0.0567,0 0.0567,0.08498 0.0567,0 0.19829,-0.08498 0,0.08498 0.0567,-0.08498 0.0567,0 0.0566,0.08498 0.085,0 0.0567,-0.08498 0.0567,0 0.1983,0.08498 0.0566,-0.08498 0.3116,0.08498 0.16997,0 0.085,-0.08498 0.0566,0 0.11331,0.169964 0.0567,-0.08498 0,-0.08498 0.36825,0.169964 0.085,-0.08498 0,-0.169964 -0.25494,-0.08498 -0.0567,0.08498 -0.14163,0 -0.0567,-0.08498 -0.0566,0.08498 -0.56655,0 -0.3116,-0.08498 -0.0567,0.08498 -0.0567,-0.08498 0,-0.08498 -0.0567,0.08498 -0.14163,0 -0.0567,-0.08498 -0.0567,0.08498 -0.0567,0 -0.085,-0.08498 -0.0566,0.08498 -0.0567,0 -0.19829,-0.169964 -0.0567,0.08498 0,0.08498 -0.0566,-0.08498 -0.0567,0 -0.0567,0.08498 -0.0566,0 -0.085,-0.08498 0,-0.08498 -0.0567,0.08498 -0.73651,0 -0.0567,-0.08498 -0.085,0.08498 -0.11331,0 -0.0566,-0.08498 -0.0567,0.08498 -0.82149,0 0,0.08498 z m 0.14163,1.982916 0.0567,0 0.11331,-0.169964 0,-0.08498 -0.11331,0 -0.0567,0.08498 0,0.169964 z m 0.36826,11.245967 0.11331,0 0.22662,0.141637 0,0.05666 -0.33993,-0.198292 z m 0.67986,-11.245967 0.0566,0 0.19829,-0.08498 0,0.08498 0.16997,-0.08498 0,-0.169964 -0.16997,0.169964 -0.14163,-0.169964 -0.11331,0.254946 z m 0.56654,-0.08498 0.11331,0.141637 0.11331,-0.141637 -0.16996,-0.08498 -0.0567,0 0,0.08498 z m 0.36826,0.141637 0.0567,-0.05666 0.0567,0 0.19829,0.05666 0,-0.05666 0.0567,0.05666 0.0567,0 0.11331,-0.141637 -0.16996,-0.08498 -0.0567,0.08498 -0.085,0 -0.0567,-0.08498 -0.16996,0.08498 0,0.141637 z m 0.9348,0.821494 q 0,-0.141637 0.16997,-0.141637 l 0.0566,0.05665 0.085,0 0.16996,-0.05665 0.0566,0.05665 0.085,-0.05665 0,0.05665 -0.14164,0.169964 -0.0567,0 -0.42491,-0.08498 z m 1.72797,-2.606119 0.1983,0 0,-0.169964 -0.1983,0 0,0.169964 z m 0.25495,-0.08498 0.42491,0.08498 0.14164,0 0.0566,-0.08498 0.0567,0.08498 0.0567,0 0.11331,-0.169964 -0.16996,-0.08498 -0.67986,0.08498 0,0.08498 z m 0.36826,2.861065 0,-0.08498 0.19829,-0.169964 0.0566,0.08498 0.0567,0 0.0567,-0.08498 0.0567,0 0.19829,0.08498 0.0567,-0.08498 0.0567,0.08498 0,0.08498 0.0566,-0.08498 0.085,0 0.0567,0.08498 0.0567,0 0.1983,-0.08498 0,0.08498 0.0566,-0.08498 0.11331,0 0.0566,0.08498 0.085,-0.08498 0.36825,0.08498 0,0.169964 -0.99146,0 -0.39658,-0.169964 -0.22662,0.08498 -0.0566,-0.08498 -0.14164,0.169964 -0.0566,-0.08498 z m 0.3116,-0.991458 0.0567,0.08498 0.11331,0 0,-0.08498 -0.11331,-0.141637 -0.0567,0 0,0.141637 z m 0.25494,-0.05666 0.0567,0.226619 0.11331,-0.169964 -0.11331,-0.141637 -0.0567,0 0,0.08498 z m 0,-1.72797 0.11331,0 0,0.08498 0.0567,-0.08498 0.14163,0 0.0567,0.08498 0.0567,-0.08498 0.0567,0 0.0566,0.08498 0.085,-0.08498 0.11331,0 0.0566,0.08498 0.0566,-0.08498 0.14164,0 0.0567,0.08498 0.0566,-0.08498 0.3116,0.08498 0.25495,0 0,-0.169964 -0.11331,0 0,-0.08498 -0.085,0.08498 -0.16997,0 -0.25494,-0.08498 -0.1983,0.08498 0,-0.08498 -0.0566,0.08498 -0.11331,0 -0.0566,-0.08498 -0.085,0 -0.0566,0.08498 -0.0567,-0.08498 0,-0.08498 -0.36825,0.169964 -0.0567,-0.08498 0,0.169964 z m 0.48157,1.954589 0.14164,0 0,-0.169964 0.11331,0 0,0.169964 0.25494,0 0.11331,-0.169964 -0.16996,-0.05666 -0.085,0.05666 -0.0566,0 -0.0566,-0.05666 -0.0567,0 -0.19829,0.05666 0,0.169964 z m 0.79317,-22.916845 0,-0.594875 0.90647,0 0,0.594875 -0.90647,0 z m 0.33992,23.001827 0.11331,0 0,-0.169964 0.11331,0 0,0.169964 0.14164,-0.169964 -0.19829,-0.08498 -0.16997,0.08498 0,0.169964 z m 0.11331,-1.954589 0.56655,0 0.0567,0.08498 0.0566,-0.08498 0.3116,0.08498 0.36826,0 q 0,-0.169965 -0.53822,-0.254947 l -0.085,0.08498 -0.0567,-0.08498 0,-0.08498 -0.0566,0.08498 -0.31161,0 -0.0566,-0.08498 -0.25495,0.08498 0,0.169964 z m 0.67986,8.696504 0.59488,-0.594875 0,0.906476 -0.59488,0 0,-0.311601 z m 0.0567,-31.839968 0,-0.594875 q 1.18975,0 1.18975,-0.878148 l 0.59488,0 0.59487,0.594874 q -0.16996,0.878149 -2.3795,0.878149 z m 1.18975,3.569249 0,-0.283274 0.90648,0.283274 0,0.594875 -0.3116,0 -0.59488,-0.594875 z m 0.73652,22.180334 0.25494,0 0,-0.08498 -0.25494,0 0,0.08498 z m 0.3116,0.08498 0.19829,0.08498 q 0.3116,-0.113309 0.3116,-0.254946 l -0.50989,0 0,0.169964 z m 0.99146,-26.995987 4.13579,0 0.59488,0.594875 0,22.916845 q 0,4.164124 6.54362,4.164124 l 4.47573,0 q 8.32824,0 8.32824,-3.285975 l 0,-8.923123 -3.28597,0 0,4.164124 -1.18975,1.189749 -0.28328,0 -1.18975,-1.189749 0,-19.035995 0.59488,-0.594875 5.35387,0 0,-7.138499 -5.66547,0 -0.59488,-0.594874 0,-8.639849 -8.61152,0 0,1.473023 q 0,5.410528 -8.61152,7.7617 l -0.59487,0 0,4.447398 0.59487,0 0,0.594875 -0.59487,0 0,2.096226 z m 1.04811,21.670441 0.19829,0 0,-0.169965 -0.19829,0 0,0.169965 z m 0.3116,-0.991458 0.14164,-0.141637 0.0567,0 0,0.141637 -0.19829,0 z m 0.36826,7.308462 0.085,-0.08498 0.42491,0.169964 q 0.42491,-0.113309 0.42491,-0.254946 l 0.82149,0.254946 0,0.169964 -0.36825,0.05665 q -0.25495,-0.113309 -0.25495,-0.226619 l -0.99146,0.226619 -0.14163,-0.311601 z m 0.56654,-6.79857 0.14164,-0.169964 0.22662,0 -0.11331,0.169964 0,-0.08498 -0.0567,0.08498 -0.19829,0 z m 0.45324,7.053516 0.0567,0 0.16996,0.05665 0,0.169964 -0.0567,0 -0.16997,-0.226619 z m 0.59488,6.090386 0.22661,0 0.085,0.02833 0.0566,0 0.73651,-0.339928 0.0567,0 -0.19829,-0.169965 0,-0.05665 q 0,-0.02833 0.36825,-0.08498 l 0,-0.02833 -0.16996,0 0,-0.02833 0.16996,-0.169964 -0.0566,-0.02833 0.11331,-0.05666 0,-0.02833 -0.11331,0 0,-0.02833 0.3116,0.02833 0.0566,0 0,-0.02833 -0.11331,0 0,-0.05666 0.11331,0 -0.11331,-0.08498 0.28328,-0.11331 -0.16997,-0.113309 q 0,-0.08498 0.25495,-0.226619 l 0.16996,0 0.25495,-0.02833 0.22662,0.02833 q 0.085,-0.198292 0.42491,-0.198292 l -0.0566,-0.02833 0.0566,-0.08498 -0.0566,-0.02833 0,-0.02833 0.0566,-0.05666 -0.11331,-0.05665 0,-0.02833 q 0,-0.08498 0.73651,-0.113309 l -0.25494,-0.141637 q 0.14163,-0.05665 0.42491,-0.05665 l -0.0567,0 0,-0.05666 0.25495,-0.05665 0.36825,0 q 1.04812,-0.05665 1.38805,-0.198291 l 0.0566,0.02833 q 0.39658,-0.02833 0.6232,-0.113309 l 0.36826,0.05665 q 0,-0.08498 0.48156,-0.08498 l 0.11331,0.02833 q 0,-0.02833 0.42491,-0.05665 l 0.0567,0.02833 0,0.02833 0.3116,-0.08498 0.11331,0 0.0567,0.02833 0.36826,-0.08498 0.085,0.02833 0.0567,0 q 0,-0.05665 0.16996,-0.05665 l 1.04811,0.08498 0.0567,-0.02833 0.0566,0 0.0567,0.02833 0.0566,0 0.5099,-0.05665 0,0.02833 0.0567,-0.02833 0.59487,0.05665 0.1983,-0.02833 0.0566,0.02833 0.0567,0 0.36825,-0.05665 0,0.05665 0.11331,0 q 0,-0.08498 0.11331,-0.08498 l 0.14164,0.05665 0.65153,-0.113309 0.99146,0.113309 0.0566,0.02833 0.48157,-0.02833 q 0,0.05666 0.48156,0.05666 l 0,0.02833 -0.11331,0 0,0.02833 0.11331,0 0.085,-0.02833 0.28328,0.02833 0.3116,0 0.19829,-0.05665 0.33993,0.02833 0.25494,-0.02833 0,0.02833 0.0567,-0.02833 0.0567,0 0.5099,0.05665 0.11331,0 0.42491,-0.05665 0.16996,0.05665 0.14164,0 0.0566,0 0.0567,0 0.11331,0.02833 0.0566,-0.05665 0.085,0 0.33993,0.05665 0.45324,-0.02833 0,0.02833 0.16996,0.11331 -0.0567,0.934803 -0.0567,0.02833 0.16997,0 0,0.02833 -0.11331,0 0,0.08498 -0.0567,0.08498 0.0567,0.08498 -0.0567,0 0.0567,0.02833 -0.0567,0.169965 0,0.254946 0.0567,0.11331 -0.11331,0.198291 0,0.424911 -0.085,0.02833 0.085,0.02833 -0.085,0.11331 -0.0567,1.218077 0.25495,0.02833 0,0.08498 -0.0567,0 -0.19829,-0.02833 0.0567,0.02833 0,0.02833 -0.0567,0.05665 0.25495,0 -0.0567,0.02833 0,0.02833 0.59488,0.05665 0,0.02833 -0.22662,0.08498 q 0,-0.08498 -0.19829,-0.08498 l 0,0.02833 -0.0567,-0.02833 -0.16996,0 -0.085,0.08498 q 0.19829,0 0.19829,0.05665 l 0,0.05665 q -0.25495,0 -0.36826,0.254947 l 0.25495,0.02833 0,0.05665 q -0.25495,0 -0.25495,0.05665 l 0,0.311601 -0.19829,0.08498 -0.0567,-0.02833 -0.0567,0.02833 -0.11331,0 -0.0566,-0.02833 -0.0567,0.02833 -0.085,0 -0.0566,-0.02833 -0.0567,0.02833 -0.0566,0 -0.19829,-0.05666 -0.11331,0.05666 0,-0.02833 -0.0567,0.02833 -0.59487,-0.05666 -0.085,0.02833 -0.11331,0 -0.0566,-0.02833 -0.0567,0.02833 -0.31161,0 -0.0566,-0.02833 -0.0567,0 -0.0566,0.02833 -0.14164,-0.05666 -0.11331,0.05666 -0.3116,-0.05666 -0.36825,0.02833 q 0,0.05666 0.3116,0.05666 l 0,0.02833 0.19829,-0.02833 q 0.48156,0 0.48156,0.02833 l 0.0567,0 0.11331,0 0.0567,0 0.0567,0 0.3116,0 0.0566,0 0.085,0 0.11331,0 0.0566,0 0.0567,0 0.0566,0 0.0566,0 0.67986,-0.02833 q 0.79317,0 0.79317,0.226619 l -0.11331,0.05665 0.11331,0.169965 q -0.11331,0 -0.11331,0.141636 l -0.14164,0 0,0.02833 0.14164,0 0,0.08498 -0.14164,0.05666 -0.59487,0 -0.0567,0.02833 -0.25494,-0.05666 -0.22662,0.02833 0,0.08498 0.16996,-0.05665 0,0.02833 0.0567,-0.02833 0.19829,0 0,0.05665 0.0566,0 0,-0.05665 0.16997,0.05665 0.14163,-0.05665 0.11331,0.05665 0.11331,-0.05665 0.11331,0 q 0.14164,0 0.19829,0.226619 l -0.0566,0.02833 0.11331,0.02833 q 0,0.169964 -0.67986,0.198291 -0.33993,0 -0.53822,-0.05665 l -0.3116,0.05665 q 0,-0.08498 -0.22662,-0.08498 l 0,-0.02833 -0.0567,0.02833 -0.085,0 -0.53822,-0.113309 -0.0566,0.02833 -0.0567,0 q -1.33138,-0.198291 -1.58633,-0.198291 l -0.0566,0.02833 -0.085,0 -0.59487,-0.08498 0,-0.08498 0.0566,0 0.0567,0.02833 0.0566,0 0.1983,-0.02833 0,0.02833 0.0567,-0.02833 0.11331,0 0.0567,0.02833 0.085,-0.02833 0.0566,0 0.16997,0.02833 0.0566,-0.02833 0.14164,0.05665 0.0566,-0.02833 0,-0.02833 0.0567,0.02833 0.0566,0 0.0567,-0.02833 0.0566,0 0.085,0.02833 0,0.02833 0.0567,-0.02833 0.11331,0 0.0566,0.02833 0.0567,0 q 0,-0.05665 0.19829,-0.05665 l 0.0566,0.02833 0.11331,0 0,-0.02833 q -1.38804,-0.08498 -2.97437,-0.08498 l 0,-0.02833 -0.0567,0.02833 -0.3116,-0.02833 -1.10476,0 -0.0567,0 -0.16996,0 -0.085,0 -0.0566,0 -0.0567,0 -0.36825,0 q -2.57779,0 -3.8242,-0.05666 l -0.0566,0.02833 -0.085,0 -0.16997,-0.02833 -0.3116,0.02833 -0.42491,-0.02833 -0.16996,0.02833 0,-0.02833 -0.0567,0.02833 -0.3116,-0.02833 -2.32284,0 -0.22662,-0.02833 -0.085,0.02833 -0.28327,-0.02833 -0.73651,0 -0.11331,-0.05666 0.16996,-0.05665 0,-0.02833 0.0567,0.02833 0.0566,-0.02833 0.0567,0 0.085,0.02833 0.0567,0 0.16996,-0.02833 0.0567,0.02833 0,-0.05666 0.14164,0 0,0.05666 0.11331,0 0,-0.05666 -0.3116,-0.02833 -0.22662,0.02833 0,-0.02833 -0.085,0.02833 -0.0567,0 -0.16996,-0.05666 0,0.05666 -0.11331,-0.05666 -0.085,0.02833 -0.0567,0 q -0.11331,0 -0.11331,-0.141636 -0.3116,0 -0.3116,-0.05666 l 0.3116,-0.08498 q -0.25494,-0.198292 -0.48156,-0.198292 l 0,-0.05665 0.28327,0 0.085,0.02833 0.0567,-0.02833 0.73651,0 0.0567,0.02833 0.0567,-0.02833 0.3116,0 0.0567,0.02833 0.0566,-0.02833 0.0567,0 0.0566,0.02833 0.0566,0 0.1983,-0.02833 0,0.02833 0.0566,-0.02833 0.11331,0 0.0567,0.02833 0.085,-0.02833 0.0566,0 0.0567,0.02833 0.0566,-0.02833 0.11331,0 0.0567,0.02833 0.19829,-0.02833 -0.42491,-0.02833 -0.0567,0.02833 -0.0566,-0.02833 0,-0.02833 -0.085,0.02833 -0.11331,0 -0.0567,-0.02833 -0.0566,0.02833 -0.0567,0 -0.0566,-0.02833 -0.085,0.02833 -0.1133,0 -0.0567,-0.02833 -0.0566,0.02833 -0.0567,0 -0.085,-0.02833 -0.0567,0.02833 -0.11331,0 -0.0566,-0.02833 -0.0567,0 -0.0567,0.02833 -0.14164,-0.05665 -0.11331,0.05665 -0.11331,-0.05665 -0.0566,0.02833 0,0.02833 -0.085,-0.02833 -0.0567,0 -0.0566,0.02833 -0.0567,0 -0.0566,-0.02833 0,-0.02833 -0.0567,0.02833 -0.085,0 -0.0566,-0.02833 -0.0567,0.02833 -0.11331,0 -0.0566,-0.02833 -0.0567,0.02833 -0.085,0 q -0.3116,-0.02833 -0.65153,-0.226619 l 0,-0.02833 0.11331,0 0,-0.05665 -0.11331,0 0,-0.05665 q 0,-0.05666 0.16997,-0.05666 l 0,-0.02833 -0.11331,0 -0.1983,0.02833 0,-0.02833 q 0,-0.02833 0.5099,-0.11331 l -0.25495,-0.141637 0.0567,-0.02833 0,-0.02833 -0.11331,-0.02833 0,-0.113309 0.11331,-0.08498 0.0566,0.02833 0.0567,0 0.14163,-0.141637 -0.42491,-0.226619 0,-0.05666 0.42491,-0.02833 0.0567,0.02833 0,-0.05665 -0.48157,-0.198292 -0.19829,-0.226619 0.0566,0 -0.0566,-0.02833 0,-0.02833 q 0.16996,-0.169964 0.3116,-0.169964 0,-0.08498 -0.48156,-0.11331 l 0,-0.05665 z m 0.19829,-6.090386 0,-0.08498 0.0566,-0.08498 0.0567,0 0.6232,0.08498 0,0.141637 -0.3116,-0.05665 -0.36826,0.05665 -0.0566,-0.05665 z m 0.9348,0.141637 0,-0.141637 0.25495,0 0.42491,0.05665 0,0.169964 -0.11331,0 0,0.08498 0.0566,0.05665 0,0.08498 -0.0566,0 q -0.33993,-0.311601 -0.56655,-0.311601 z m 0.87815,-0.08498 0.0566,-0.05665 0.0567,0 q 0.50989,0.05665 0.50989,0.226619 l 0,0.08498 -0.085,-0.08498 -0.3116,0.08498 -0.22662,-0.254946 z m 0.79317,0.254946 0,-0.169964 0.3116,0.08498 0,0.141637 -0.3116,-0.05665 z m 3.28597,-1.133094 0.14164,0 0.11331,0.736511 0,0.453238 -0.11331,0 -0.0567,-0.53822 0,-0.169964 0.0567,-0.08498 -0.14164,-0.396583 z m 0.14164,-1.076441 0,-0.339928 0.0566,-0.05666 -0.0566,-0.08498 0,-0.594875 0.11331,0 0,1.07644 -0.11331,0 z m 0.0566,-3.455939 0.11331,0 0.085,0.821494 0,0.169964 -0.14163,0 0,-0.226619 0.0566,-0.08498 -0.11331,-0.679857 z m 0.0567,-2.039571 0,-0.08498 0.19829,-0.226619 0,0.141637 -0.14164,0.169964 -0.0566,0 z m 3.14434,9.772944 0,0.283273 0.59487,0 0,-0.878148 -0.59487,0.594875 z m 2.6911,-0.906476 0,0.311601 1.47302,0 -0.28327,-0.311601 0,-0.283274 -1.18975,0.283274 z"
         style="fill:#363636;fill-opacity:1"
         id="path3366" />
      <path
         d="m 289.44017,71.730118 0,-53.170481 0.56655,-0.566547 1.38804,0.283274 q 0,-0.566548 1.95459,-0.849821 l 0.56654,0.566547 3.90918,0 0.56655,0.566547 1.41637,-0.283273 1.95459,0.283273 0.56654,-0.566547 0.8215,0.283274 0.84982,-0.283274 0.28327,0.283274 0.28328,-0.283274 0.28327,0.283274 0.82149,0.283273 0,0.283274 0.28328,-0.283274 1.38804,0.283274 0.28327,0 q 1.10477,-0.849821 3.65423,-1.133095 l 0.56655,0.566548 1.10477,-0.566548 3.9375,0.283274 0.25495,0 1.41637,-0.283274 0.56655,0.566548 0.53822,-0.566548 0.84982,0.849821 1.13309,-0.283273 q 0.25495,1.954589 1.67132,1.954589 l 0.56655,0.849821 -0.56655,0.821494 0.56655,1.133095 -0.28328,0.821493 0.28328,0 1.10476,-0.254946 0.84982,0 0,0.53822 -1.13309,0.566548 -0.82149,-0.283274 0,0.283274 -0.28328,1.133095 q 0.53822,3.002701 1.10477,3.625903 l 0,0.283274 -0.28327,1.954589 q 3.65423,4.249106 3.65423,6.430314 l 0,0.566547 -0.56655,0.849821 q 0.79317,1.359714 2.52114,2.237863 l 0,0.283274 q -0.45324,0 -0.84982,1.954588 l -1.38805,0.566548 0,0.566547 0.56655,0.821494 0,0.566548 -0.28327,0.283273 1.10477,1.671316 q -0.73652,0.113309 -1.10477,1.416368 0.70818,0 1.38804,1.954589 l 0,0.283274 -0.56655,0.821494 0.56655,0.566547 0,1.133095 -1.38804,1.388041 0.56654,0.566548 -0.28327,0.283274 0,0.283273 -0.28327,-0.283273 -0.56655,0 0,0.283273 0.56655,0.821494 -0.56655,0.566548 0.28327,0.283273 -0.28327,0.283274 -0.28327,0 -0.28328,-1.954589 -0.28327,0 q 0,1.388042 -0.8215,1.388042 l 0,0.283273 q 1.38805,0 1.67132,1.104768 l -0.56655,0 -1.10477,-0.53822 -0.28327,0 0,0.254946 0.56655,0 0,0.849821 -2.23786,0 0,0.283274 0.53822,0 0,0.566548 q -0.76484,0 -2.52114,2.492809 l 0.56655,0 0,0.283273 q 0,0.849821 -2.23787,0.849821 l 0.28328,0.283274 0,0.53822 -0.28328,0.283274 0,0.283274 q 0.84983,0 0.84983,0.566547 l -0.56655,0.566548 -0.28328,0 -0.28327,-0.283274 q -1.35971,0.08498 -2.80441,3.625904 l -0.25495,0 -0.28327,-0.283274 -0.56655,0.566548 -0.56654,0 -0.28328,-0.283274 -0.28327,0 -1.38804,1.133095 -0.28328,-0.283274 -0.28327,0 -1.10477,0.283274 -3.08768,-0.849821 q 0,0.708184 -1.41637,0.849821 l -0.82149,0.283274 0,0.283273 -1.41637,-0.283273 -2.23787,0 -1.67131,0.821493 q 0,-0.53822 -1.10477,-0.53822 l 0,-0.849821 -0.28327,0 -1.1331,0.849821 q -0.70818,0 -0.84982,-1.133095 l -0.25494,0 0,0.283274 0.25494,0.849821 -0.25494,0.254947 -0.56655,0 0,-0.53822 -0.28328,0 -0.84982,0.283273 -0.28327,-1.416368 -0.25495,0 q 0,1.444696 -0.84982,1.671315 l -0.56655,-0.53822 -0.28327,0.283273 -0.28327,0 -1.95459,-1.416368 q 0,1.671315 -1.38804,1.671315 l -0.56655,-1.104768 z m 2.23786,-7.563409 0.84982,0.849821 0.28328,-0.849821 -0.28328,-0.283273 -0.84982,0.283273 z m 0.28328,-9.48967 2.80441,0 0.28327,0.254946 0.28327,-0.254946 3.05936,0 0.28327,0.254946 0.28328,-0.254946 3.08768,0 0.28327,0.254946 0.25495,-0.254946 0.56655,0 0.28327,0.254946 0.28328,-0.254946 0.84982,0 0.82149,0.53822 q 0,-0.53822 0.84982,-0.53822 l 0,-6.175367 0.28328,-1.954589 q -1.16143,-0.396583 -1.67132,-1.388042 l 0,-15.126817 1.95459,-1.954589 1.10477,0 q 1.58633,0 2.80441,2.237863 l 0,5.863766 q 0,10.084545 -1.38804,10.084545 l -1.1331,0.283274 0,8.384902 14.277,0.283274 0,-6.996861 0.56654,0 0,-0.566548 q -0.56654,0 -0.56654,-0.821494 -1.52968,0 -2.52114,-1.671315 l 0,-12.605681 0.28327,-3.087684 q -1.07644,-8.384902 -5.32554,-8.384902 0,-0.396584 -2.77608,-0.566548 -3.05936,0 -7.56341,1.954589 l -0.28328,-1.388041 -3.37095,0 -8.38491,-0.283274 0,7.280135 q 1.24641,0 2.23787,1.954589 l 0,12.860628 q -0.48157,3.370957 -2.52114,3.370957 l 0,6.996861 -0.28327,1.416369 z m 3.90917,9.48967 0,0.566548 0.28328,0.283273 0.56654,0 0,-0.283273 -0.56654,-0.566548 -0.28328,0 z m 4.47573,-6.430314 0.56655,0 0,-0.283273 -0.28328,-0.821494 -0.28327,0 0,1.104767 z m 3.37096,5.863767 0,1.133095 0.28327,0 0,-1.133095 -0.28327,0 z m 0.56654,-5.863767 0.56655,0.566548 0.25495,-0.283274 0,-0.283274 -0.25495,-0.283273 -0.56655,0 0,0.283273 z m 3.05936,6.713588 0,1.104768 0.28327,0 0,-1.104768 -0.28327,0 z m 15.12682,-6.713588 0.28327,0 0,-1.671315 -0.28327,0 0,1.671315 z"
         style="fill:#d38d23;fill-opacity:1"
         id="path3368" />
      <path
         d="m 327.93709,35.414425 q 0.53823,4.334088 1.61467,4.334088 0,-14.645252 10.84938,-20.594001 2.12455,-1.104767 5.94875,-1.104767 l 8.15828,0.566547 q 0,1.07644 5.41053,4.872308 3.05936,4.164124 5.41053,16.259913 l 0.56655,0 0,1.07644 -1.10477,0 0,2.181208 1.10477,0 0,1.07644 q -1.47303,0 -2.71943,9.234724 -5.77879,10.821057 -15.72169,10.821057 -12.77565,0 -16.82646,-13.540485 l -1.07644,-8.129956 0.53822,0 -0.53822,-2.181208 -1.07644,1.104768 0,3.257648 0.53822,3.22932 q -1.04812,-10.792729 -1.04812,-13.200556 0,-0.679857 0.085,-0.679857 0.11331,0 0.42492,1.416369 l -0.53823,0 z m 0,-19.149305 0,-0.53822 0.53823,0 0.53822,0.53822 0.53822,0 0,-0.53822 -1.07644,-1.07644 1.61466,-1.104768 3.79586,0 0.53822,0.53822 0.53822,-0.53822 1.64299,0 0,2.181208 -1.64299,-1.07644 -1.07644,0 1.64299,2.15288 -1.10477,1.642988 0.53822,0.53822 -0.53822,0.53822 -0.53822,0 -1.61466,-1.07644 -1.10476,0 0,1.61466 -1.07644,-1.07644 0.53822,-0.53822 0,-0.566548 q -2.69111,-0.368255 -2.69111,-1.61466 z m 13.00227,27.817481 q 1.07644,5.977076 2.18121,5.977076 l -0.56655,0.53822 0,0.53822 q 0,2.181208 4.90064,3.257648 l 0.53822,0 q 4.5607,0 5.41052,-8.129956 l 0,-7.591736 q 0,-10.311164 -5.94874,-10.311164 -6.5153,0 -6.5153,14.107032 l 0.53822,1.61466 -0.53822,0 z m 23.85165,-7.053516 0,-0.53822 0.53822,-0.53822 -0.53822,-0.53822 0,-3.795868 1.10477,0 0,5.410528 -1.10477,0 z"
         style="fill:#d38d23;fill-opacity:1"
         id="path3370" />
      <path
         d="m 363.7712,18.248036 0,-0.53822 0.53822,-0.509892 q 1.30306,0.02833 1.30306,0.509892 l 0.28327,-0.254946 3.08769,0 q 3.68256,-0.708184 3.68256,-1.558006 l 1.84127,0 0.48157,0.509893 0.28327,-0.254946 0.5099,0 0.79316,0.509892 0,-1.303059 1.04812,0 q 0,0.708185 1.84127,1.048113 l 0.5099,-0.509893 0.28327,0.254947 0.25495,-0.254947 0.25494,0 1.30306,0.254947 0.5099,-0.53822 0.25494,0.283273 0.25495,0 0.28327,-0.283273 0.25495,0 3.39928,0.53822 1.33139,-0.254947 3.90918,0 0.25494,0.254947 0.25495,-0.254947 2.88939,0 1.04812,0.254947 0.25494,-0.254947 0.25495,0 1.558,0.254947 0,47.02344 -0.25494,3.937505 -0.53822,0 q -0.93481,-0.793166 -1.78463,-0.793166 l -0.79316,0.509892 -0.28328,0 0.28328,-0.254946 0,-0.53822 -1.04812,-0.509893 -0.28327,0.254947 -0.25495,-0.254947 0,-0.254946 0.25495,-0.283274 0,-0.254946 -0.50989,0 -0.53822,1.586333 -0.5099,0 0,-0.793167 -0.25494,0 0,0.509893 -0.28328,0 q -1.558,0 -1.558,-1.048113 l -0.25495,0 0,0.53822 -1.30306,0 -0.79316,-0.53822 -1.55801,0 -0.25495,0.283274 -0.28327,0 -1.30306,-1.048113 q 0,0.764839 -0.50989,0.764839 l -0.28327,0 q -0.5099,0 -0.5099,-0.764839 l -0.28327,0 q 0,0.764839 -0.50989,0.764839 l -0.76484,0 q -0.5099,0 -0.5099,-0.764839 l -0.28327,0 q 0,0.991458 -1.84128,1.303059 l 0,-0.254946 0.28327,-0.283274 0,-0.254946 -2.63444,-0.793167 q -1.30306,0 -1.30306,-0.509892 l 0.50989,-1.048113 0,-0.254947 -0.25494,0 q 0,0.764839 -0.5099,0.764839 l -0.50989,0 q -0.53822,0 -0.53822,-1.019785 l -0.25495,0 q 0,0.65153 -1.30305,0.764839 l -0.53823,-0.509893 -0.50989,0.509893 -0.79316,-0.764839 -0.25495,0.254946 0,0.254947 -1.58633,-0.764839 -0.25495,0.254946 0,0.254946 -1.04811,-0.509892 q 0,0.566547 -1.27473,0.764839 l -0.25495,-0.254947 0,-0.509892 0.25495,-0.283274 -0.5099,-0.764839 0.25495,-1.812952 0,-3.654231 0.25495,-1.84128 0.25494,0 0.79317,0.793167 0,3.370957 5.72213,0 0,-17.477989 q 0,-5.778785 2.86106,-5.778785 2.63445,0 2.63445,5.240565 l 0,10.169527 -0.53822,0.793166 0.53822,0.53822 0,6.515296 5.75046,0 0,-14.900198 q 0,-8.611522 3.14433,-8.611522 2.60612,0 2.60612,6.288677 l -0.28327,2.861065 0.28327,0.254946 0,0.254947 -0.28327,0.283273 0.28327,1.303059 0,12.549027 1.30306,-0.283274 0.25495,0 0.79316,0.53822 0.5099,-0.53822 1.04811,0.283274 1.04811,-0.283274 0.79317,0 0.53822,-0.509892 0,-0.538221 -0.53822,0 0,-17.223043 q 0,-10.736074 -8.35658,-10.736074 -3.28597,0 -5.49551,1.841279 -1.72797,-1.841279 -4.70234,-1.841279 -1.92626,0 -3.90918,1.048112 l -0.53822,-0.509892 -5.46718,0 0,13.568812 -0.50989,0.53822 -0.28328,0 -0.50989,-0.53822 0,-0.509893 0.25495,-0.254946 -0.5099,-2.606119 0.25495,0 -1.30306,-9.433015 0.25495,0 -0.53822,-1.812952 0.28327,-0.283274 0,-0.254946 -0.53822,-2.322845 0.25495,-0.283274 0,-0.254946 -0.5099,-2.889392 0.25495,0 q -0.53822,-1.161423 -0.53822,-3.370958 z m 2.63445,26.911005 0.25494,-0.793166 -0.25494,-0.793166 0.25494,-0.254947 0.28328,0 0.50989,0.53822 0,1.558006 -0.50989,0 -0.28328,-0.254947 -0.25494,0 z m 0.25494,2.889393 0.28328,-0.254947 0,-0.283274 -0.28328,-1.303059 0.28328,-0.254946 0.22661,0 0.28328,0.254946 0,3.370958 -0.50989,0 -0.28328,-1.529678 z m 10.9627,14.333651 0,1.303059 0.25494,0 0,-1.303059 -0.25494,0 z m 14.10703,2.889392 0,0.254946 0.25494,0 0.28328,-0.793166 0,-0.254947 -0.28328,0 -0.25494,0.793167 z"
         style="fill:#d38d23;fill-opacity:1"
         id="path3372" />
      <path
         d="m 392.04192,62.240448 0.39659,0 0,0.509893 -0.22662,0 -0.16997,-0.509893 z m 1.47303,-41.386293 0,-0.198292 0.16996,-0.226619 0.19829,0 0.19829,0.226619 0,0.198292 -0.19829,0.198291 -0.19829,0 -0.16996,-0.198291 z m 0.36825,-3.99416 0,-0.226619 0.19829,-0.254946 0.42491,0 0,0.254946 -0.42491,0.424911 -0.19829,-0.198292 z m 0.16997,53.765355 0.11331,-0.169964 0,-0.113309 0.70818,-9.348034 -0.11331,-0.113309 0,-0.11331 q 0.33993,-1.784624 0.33993,-3.427612 l 0.22662,0 0,1.104768 0.14163,1.416368 -0.48156,3.540922 0.22662,0.481566 q -0.45324,0 -0.8215,6.090385 l 0.25495,0.254946 0,0.11331 -0.36826,0.396583 -0.1133,-0.11331 -0.11331,0 z m 0.82149,-19.432578 0,-0.198292 0.79317,0 0,0.198292 -0.59488,0.226619 -0.19829,-0.226619 z m 0.39658,-0.821494 0,-0.906476 0.39659,0 0,0.906476 -0.39659,0 z m 0.84982,-20.70731 0,-0.141637 0.45324,0 -0.14163,0.141637 0,0.141637 0.14163,0.141637 -0.14163,0 -0.31161,-0.283274 z m 2.32285,-12.662336 1.13309,-0.594875 7.47843,-0.481565 0.19829,0.198291 22.29365,-0.623202 0.39658,0.594875 1.89793,44.33234 -0.79316,0 -0.56655,0.198292 -1.18975,-0.198292 q -15.58006,1.359714 -29.54545,1.72797 l -1.10477,-41.754549 -0.19829,-3.399285 z m 2.74775,28.327374 q 0,6.317004 4.50406,8.328248 l 2.29451,0.42491 0.8215,0 q 5.0706,0 8.63985,-5.098927 l 0.19829,0 q 0,3.257648 0.99146,3.99416 l 9.82959,-0.594875 q -0.87814,0 -2.37949,-25.353 -1.7563,-7.393444 -8.83815,-7.393444 -6.06205,0.396583 -6.06205,1.218077 l -0.19829,0.198291 0,0.283274 -1.35972,-0.481565 q -2.32284,0.679857 -3.37096,1.473023 l 0.16997,0.226619 0,0.254947 -0.16997,0.623202 -0.39658,-0.424911 0.19829,-0.198291 0,-0.254947 -0.36825,0 q -3.45594,1.954589 -4.1358,3.257648 0.36826,0 2.32284,3.172666 l 0.42492,0 0.56654,-0.481565 0.19829,0 -0.56654,0.878148 q 0.73651,1.642988 1.35971,1.897934 l 1.01979,-0.198291 0,0.198291 q 2.94604,-1.61466 2.94604,-2.096225 l 0,-0.198292 0.16997,0.198292 1.95459,-0.396584 -0.1983,-0.283273 0,-0.396584 0.36826,0.396584 q 1.2464,-0.05665 2.01124,-0.793167 l 0.16997,0 -0.16997,0.198292 0,0.198291 q 2.54947,0 2.54947,3.852523 -10.31117,3.059357 -13.37052,7.195153 -2.12456,2.974374 -2.12456,6.175368 z m 4.50406,-14.446961 0,-0.396583 q 0.9348,0 0.9348,-0.481566 l 0.42491,0 0,0.679857 -1.35971,0.198292 z m 0.56654,-3.172666 0.36826,-0.42491 0.25495,0 -0.45324,0.42491 -0.16997,0 z m 0.62321,-11.75586 0,-0.594875 0.36825,0.396583 -0.19829,0.198292 -0.16996,0 z m 1.04811,49.884505 0.25495,0 0,0.08498 -0.16997,0.198292 -0.085,-0.08498 0,-0.198292 z m 0.25495,1.18975 0.16996,0 0,0.283274 -0.16996,-0.198292 0,-0.08498 z m 2.80441,-23.794994 0,-0.878149 q 0,-2.861064 5.6938,-4.702344 l 0.39658,0.679857 0,0.821494 0.16996,4.277434 q -1.92626,1.699642 -3.9375,2.15288 -2.32284,-0.396583 -2.32284,-2.351172 z m 4.53238,23.256774 0.16996,0 0,0.368256 -0.16996,0 0,-0.368256 z m 0,0.53822 0.16996,0 0,0.283274 -0.16996,0 0,-0.283274 z m 4.67401,-34.701033 0.085,0 2.03957,14.050378 0,0.226619 -0.1133,0 -0.22662,-0.226619 -1.78463,-14.050378 z m 0.14164,13.540485 0.11331,-0.169964 0.19829,0 0.14164,0.169964 0.11331,0 -0.11331,0.594875 0,1.246404 -0.14164,0 q -0.25495,0 -0.3116,-1.841279 z m 0.14164,17.591299 0.25494,-0.283274 0.56655,0 0,0.283274 -0.36826,0.396583 -0.45323,-0.396583 z m 0.25494,-35.607509 0,-0.113309 0.19829,-0.226619 0,0.339928 -0.19829,0 z m 0.36826,3.739213 0.085,-3.455939 0.11331,-0.11331 0.53822,0 0.36826,1.218077 q 0,0.254947 -0.36826,0.254947 -0.14164,2.606118 -0.42491,2.606118 -0.28327,0 -0.3116,-0.509893 z m 0.67985,0.226619 0.11331,0 2.01125,14.560271 0,0.226619 -0.22662,0 -1.89794,-14.78689 z m 0.90648,-2.067898 0.3116,0 0,-0.254946 -0.3116,0 0,0.254946 z m 1.10477,17.732936 0,-0.113309 0.11331,-0.141637 0,-0.11331 -0.11331,-0.113309 0.11331,-0.141637 0.11331,0 0,0.623202 -0.22662,0 z m 0.79316,4.815654 0,-0.396584 0.33993,0.396584 0,0.226619 -0.11331,0 -0.22662,-0.226619 z m 0.5099,-13.795431 0.085,-0.11331 0,-0.08498 0.3116,0.08498 0,0.11331 -0.39658,0 z m 0.16996,19.772507 0.19829,-0.963131 -0.11331,-0.08498 0,-0.11331 0.11331,-0.311601 -0.11331,-0.08498 -0.085,0 q 0.085,-0.793167 0.28328,-0.793167 l 0.19829,0 0.16996,0.198292 -0.16996,0.311601 0.25494,0.566548 0,0.226619 q -0.28327,0.878148 -0.53822,1.161422 l -0.11331,-0.113309 -0.085,0 z m 0.0283,-21.500477 0.36825,0 0,-0.169964 -0.36825,0 0,0.169964 z m 0.3116,-7.025189 0.48157,0 0,-0.141637 -0.48157,0 0,0.141637 z m 0.0566,8.753159 1.69965,11.387604 0.11331,-0.08498 0.19829,0 0,0.169964 -0.3116,0 -0.16997,-0.169964 -1.52968,-11.302622 z m 0,-0.623203 0.085,-0.08498 0,-0.08498 -0.085,-0.311601 0.085,-0.113309 0.085,0 0.19829,0.594874 -0.19829,0 -0.085,0.11331 -0.085,-0.11331 z m 0.0283,22.236989 0.28328,-1.048113 0.16996,0 0,0.509893 -0.16996,0.708184 -0.14164,-0.169964 -0.14164,0 z m 0.3116,-1.72797 0.085,-0.113309 0.085,0 0.19829,0.226618 -0.11331,0.11331 -0.085,0 -0.16997,-0.226619 z m 0,-23.568375 1.24641,9.687962 0.14163,-0.169964 0.31161,0 -1.55801,-10.707748 -0.14164,0.169965 0.14164,0.198291 0,0.821494 -0.14164,0 z m 0.62321,19.517561 0.11331,0.113309 0.1133,0 0,-0.453238 -0.1133,0 -0.11331,0.339929 z m 0.48156,5.155582 0,-0.198292 0.085,0 0.16997,0.198292 -0.085,0.08498 -0.085,0 -0.085,-0.08498 z m 0.14164,-16.514859 0.14163,-1.048113 0.31161,0 -0.16997,1.218077 -0.14164,-0.169964 -0.14163,0 z m 0,-6.79857 1.89793,9.517998 0.14164,0.169964 0.16996,0 -0.16996,0.878148 0,1.84128 -1.84128,-11.189313 0,-0.339928 1.69964,11.047675 0,-0.169964 -1.69964,-11.359277 1.69964,11.047676 -1.69964,-11.444259 -0.19829,0 z m 0.11331,-4.589035 0.3116,-0.113309 0,-0.141637 -0.3116,0 0,0.254946 z m 0.19829,28.69563 0.19829,-0.198292 -0.19829,-0.509892 0.6232,-0.679857 0.11331,0 0,0.311601 -0.19829,0.169964 -0.085,-0.08498 -0.085,0.08498 0,0.198292 0.085,-0.08498 0.16996,0 0,0.08498 -0.42491,0.708184 -0.19829,0 z m 0.11331,-7.535081 0,-0.08498 0.16996,0.198292 0,0.08498 -0.16996,-0.198291 z m 0.085,7.931664 0,-0.113309 0.085,0.113309 0.085,0 0.25495,-0.311601 0.11331,0.08498 0.085,-0.08498 0.19829,0 0,0.198292 -0.19829,0 0.085,0.113309 0,0.283274 -0.085,0 -0.28327,-0.198292 -0.085,0.11331 -0.085,0 -0.16996,-0.198292 z m 0.16996,2.294518 0.1983,0 0,0.283273 -0.1983,0 0,-0.283273 z m 0,-11.699206 0,-0.198291 0.1983,-0.226619 0.16996,0 0,0.141636 -0.085,0.283274 -0.28328,0 z m 0.085,8.923123 0.11331,0.396583 0.085,0 0,-0.509893 -0.085,0.11331 -0.11331,0 z m 0.11331,1.869607 0.085,0 0,-0.368256 -0.085,0 0,0.368256 z m 0,1.699642 0.16996,0 0,0.793166 -0.085,0 -0.085,-0.509892 0.085,0 -0.085,-0.08498 0,-0.198292 z m 0.0567,-2.209535 0,-0.08498 0.11331,-0.08498 0.16996,0 0,0.08498 -0.16996,0.198291 -0.11331,-0.113309 z m 0.0567,-31.471712 q 0,0.396583 0.33992,0.396583 l 0,0.113309 -0.11331,0.11331 0.11331,0.509893 0.11331,0 0,-0.396584 0.25495,0 -0.14164,0.65153 -0.11331,-0.141637 -0.22662,0 0,0.254946 0.33993,0 q 0,0.226619 -0.33993,0.226619 l 0.11331,0.11331 0,0.396583 1.81296,14.531943 0.3116,0.141637 q 0,-0.396583 0.25494,-0.396583 l 0,0.396583 0.11331,0 0,-0.283274 0.33993,0 0,0.283274 0.085,0 0.16997,-0.141637 0.085,0.141637 0.22662,0 0,-0.396583 -0.22662,-0.226619 -0.085,0.113309 -0.36826,-0.113309 -1.92626,-14.050378 0.36826,-0.623202 q 0,-0.226619 -0.59488,-0.736512 0,-0.764839 -0.79316,-0.764839 l 0,-0.226619 -0.11331,0 0,0.11331 z m 0.22661,27.732499 0,-0.594875 0.1983,0 0,0.594875 -0.1983,0 z m 0,-5.155583 0.11331,0.509893 0.1983,0 -0.11331,-0.08498 0,-0.141637 0.11331,-0.283274 -0.11331,-0.08498 -0.1983,0 0,0.08498 z m 0.31161,2.577792 0,-0.311602 0.16996,0 0,0.311602 -0.16996,0 z m 0.085,-0.481566 0,-0.42491 0.16996,0 0,0.42491 -0.16996,0 z m 0.42491,6.911879 0,-0.113309 q 0.14164,-0.396583 0.65153,-0.396583 l 0.25494,0 0.11331,0.08498 0.085,0 q 0,0.396583 -0.62321,0.906476 L 429.29242,61.6739 Z m 0.0566,-30.990147 0,-0.254946 0.36826,0 -0.22662,0.254946 -0.14164,0 z m 0.0283,26.316131 q 0,-0.226619 0.48157,-0.283274 l 0.085,0.08498 0,0.08498 -0.085,0 0.085,0.11331 0,0.113309 -0.16997,0.198292 -0.39658,-0.311601 z m 0.0567,-5.0706 0,-0.198292 0.28327,-0.283274 0.25495,0 0,0.169965 q -0.33993,0 -0.33993,0.311601 l -0.19829,0 z m 0.16996,-18.242829 0,-0.141637 0.19829,-0.226619 0.36826,0.368256 -0.36826,0.254946 -0.19829,-0.254946 z m 0.3116,20.027453 0,-1.359714 0.28327,0 0,1.359714 -0.28327,0 z m 0.19829,4.787326 0,-0.113309 0.085,-0.113309 0.11331,0 0.085,0.113309 0,0.113309 -0.085,0.11331 -0.11331,0 -0.085,-0.11331 z m 0.16997,-4.390742 0,-0.368256 0.11331,0 0.22662,0.254946 -0.11331,0.11331 -0.22662,0 z m 0.50989,8.158283 0,-5.835439 0.085,-4.447397 0.16997,0 0.16996,3.455939 0,0.368256 0.085,0.339928 -0.085,0.481566 0,1.07644 -0.25495,4.560707 -0.16996,0 z m 0.25495,-1.897934 0,-0.283274 0.16996,0 0.16996,0.368256 -0.085,0.11331 -0.085,0 -0.16996,-0.198292 z m 0.0283,-4.53238 0,-0.254946 0.33993,0 0,0.254946 -0.33993,0 z m 0.3116,3.937505 0.65153,-0.793166 0.085,0 0,0.08498 q -0.085,0.594875 -0.25495,0.594875 l -0.085,-0.08498 -0.085,0.42491 -0.11331,0 -0.1983,-0.226619 z m 0.16997,-28.695629 q 0.53822,-0.169965 0.53822,-0.368256 l -0.22662,0 -0.3116,0.113309 0,0.254947 z m 0.11331,27.845808 0,-0.339928 0.19829,0 0,0.339928 -0.19829,0 z m 0,-29.573778 0.42491,0.623202 0,-0.481565 -0.11331,-0.141637 0,-0.11331 0.11331,0 -0.11331,-0.368255 -0.11331,0 q 0,0.481565 -0.19829,0.481565 z m 0.19829,0.849821 0.48157,0.396583 0,-0.396583 -0.11331,0.169964 -0.14164,0 -0.22662,-0.283273 0,0.113309 z m 0.085,30.253635 0,-0.08498 0.085,-0.283274 0.1983,0 0,0.198292 -0.1983,0.169964 -0.085,0 z m 0.28328,-31.358402 0.11331,0.509892 0.1133,0 0,-0.736511 -0.22661,0.226619 z m 4.36241,28.0441 0,-0.254947 0.085,0 0.14164,0.169964 -0.14164,0.169965 -0.085,-0.08498 z m 0.73651,-9.06476 0.085,-0.08498 0,-0.08498 -0.085,-0.283274 0.085,-0.08498 0.19829,0 0.14163,1.18975 -0.14163,0 -0.11331,-0.368256 0.11331,-0.283274 -0.11331,0.08498 -0.085,0 -0.085,-0.08498 z m 0.16997,9.06476 0.25494,-0.169965 0.16997,0.169965 -0.25495,0.169964 -0.16996,-0.169964 z m 0.11331,-5.155582 0,-0.169965 0.0566,-0.481565 0.16997,0 0,1.274732 -0.16997,0 -0.0566,-0.623202 z m 0.0566,-2.974375 0.16997,0 0.085,0.339929 -0.16997,0 -0.085,-0.339929 z m 3.17267,0.878149 0,-0.368256 0.25494,0 0,0.198292 -0.16996,0.169964 -0.085,0 z m 0.25494,-0.453238 0,-0.08498 0.16997,-0.169964 0.085,0 0,0.254946 -0.25495,0 z m 0.56655,1.642988 0.11331,-0.283274 0.16996,0 0.14164,0.198291 0,0.08498 -0.14164,0.169964 -0.28327,-0.169964 z m 9.31971,9.659634 0,-0.254946 0.19829,0 0,0.254946 -0.19829,0 z m 0.085,-1.529678 0,-0.53822 0.19829,0 0,0.53822 -0.19829,0 z m 0.11331,-1.982916 0,-1.897934 0.16996,0 0,0.878148 -0.085,0.11331 0.085,0.08498 0,0.821494 -0.16996,0 z m 12.26575,2.067898 0,-0.08498 0.085,-0.08498 0.085,0 0.11331,0.08498 0,0.08498 -0.11331,0.113309 -0.085,0 -0.085,-0.113309 z"
         style="fill:#d38d23;fill-opacity:1"
         id="path3374" />
      <path
         d="m 427.50779,28.67251 0.0283,-0.169964 q 0.6232,0.08498 1.30306,-0.793167 l -0.14164,-0.198291 0.33993,0.05665 q 0.25495,0.02833 0.25495,1.218077 0,1.246405 -0.28328,3.767541 l -0.70818,-0.113309 0,-1.359714 0.42491,-0.311601 q -0.48157,-0.05665 -1.21808,-2.096226 z m 0.0283,6.175367 0.96313,-0.226619 -0.14164,-0.198291 0.0567,-0.424911 0.59487,0.08498 -0.16996,1.161423 -0.28328,0.141636 -0.0283,0.226619 q -1.04812,-0.453238 -0.99146,-0.764839 z m 0.6232,-1.642987 0.0567,-0.339929 0.36825,0.05665 0.3116,0.396583 -0.0283,0.198292 -0.1983,-0.02833 -0.50989,-0.283273 z m 0.76484,-8.809814 0.0283,-0.198291 0.48156,-0.283274 0.14164,0.198292 -0.0283,0.198291 -0.19829,0.141637 -0.42491,-0.05665 z m 0.50989,-4.560707 0.0283,-0.169964 0.42491,0.05666 -0.085,0.53822 -0.36826,-0.424911 z m 0.84982,34.446087 0.22662,-0.141637 0.11331,-3.087684 q 0.84982,-2.80441 2.57779,-5.438856 3.37096,-3.285975 9.2064,-3.285975 1.81295,0 3.8242,0.311601 l 0.0283,-0.169964 0.90648,-13.257211 q 0.16996,-0.08498 1.04811,-0.08498 2.29452,0 9.37636,0.53822 l -2.40782,36.259038 q -8.41323,-0.198291 -15.7217,-0.736511 -6.82689,-1.048113 -8.61152,-6.940207 l -0.56655,-3.965832 z m 11.01935,-0.991458 q -0.085,0.566547 -0.085,1.048113 0,2.464481 2.12455,3.34263 l 0.1983,-0.169965 0.19829,0.02833 0.14163,0.226619 0.1983,-0.169964 1.16142,0.198291 0.0283,-0.198291 0.31161,-5.552166 0.22662,-0.226619 -0.0567,-0.934803 0.11331,-0.764839 -0.59488,-0.11331 -0.19829,0.169965 -0.19829,-0.02833 0.0283,-0.198291 q -0.11331,0 -0.19829,0 -2.66278,0 -2.91772,1.50135 l -0.48157,1.84128 z m 24.27656,-28.978904 0.0283,-0.198291 0.33993,0.05665 0.3116,0.424911 -0.0283,0.254946 -0.36825,-0.05665 -0.28328,-0.481566 z m 1.98292,8.271593 0.0283,-0.198291 0.16996,0.02833 -0.14164,-0.198291 0.0283,-0.169965 0.67986,-0.509892 0.22662,1.019785 -0.84982,0.226619 -0.14164,-0.198292 z"
         style="fill:#d38d23;fill-opacity:1"
         id="path3376" />
      <path
         d="m 452.26593,26.236356 0,-1.359714 0.56655,0 0,1.359714 -0.56655,0 z m 7.6484,24.503178 0.25494,-1.359714 -0.25494,-0.821494 q 0.53822,0 0.53822,-1.61466 l 0.25494,0 -0.25494,-0.821494 0.25494,-0.283274 0,-0.254946 -0.25494,-0.821494 0.25494,-0.283274 -0.53822,-0.53822 0,-0.283273 0.53822,0 0,-0.254947 -0.25494,-0.283273 0.25494,-0.254947 0,-0.283274 -0.25494,-1.104767 0.25494,-0.254947 0.25495,0 -0.25495,-0.283273 0,-0.254947 0.53822,-0.566547 -0.53822,-1.61466 q -0.79316,0 -0.79316,-0.538221 0,-0.566547 1.04811,-0.566547 l -0.25495,-0.254946 0,-0.283274 0.53822,-0.53822 -0.79316,-3.540922 1.61466,-0.53822 0,-0.283274 -1.35972,-2.181208 0,-0.793166 0.25495,-0.283274 -0.25495,-0.283273 0,-0.254947 q 1.07644,-1.473023 1.07644,-2.464481 l -0.82149,-0.821494 0.82149,-0.254947 -0.53822,-0.53822 q 2.77608,-5.0706 10.62277,-7.620063 l 3.54092,-0.566548 2.97437,0 q 5.15558,0 10.62277,3.824196 l 2.43615,2.719428 0.28328,-0.283274 0.28327,0 0.25495,1.926261 0.28327,-0.283273 0.53822,0 0,0.53822 -0.28327,0.283273 0,0.254947 0.28327,0.283274 0.28327,0 0.25495,-0.283274 0,0.821494 -0.25495,0.283273 1.89794,3.540922 -0.28328,1.61466 0.56655,0.566548 q 0,-1.104768 0.53822,-1.104768 l -0.53822,-2.181207 1.07644,0 0.53822,0.566547 0,1.61466 -1.07644,0.283274 0.25495,0.254946 0,0.566548 -1.07644,0.254946 0,0.821494 0.82149,0 -0.53822,0.53822 0.25495,5.438856 0,4.107469 -0.25495,0.254947 0,0.283273 -23.96496,-0.53822 q 0,6.062058 5.18391,7.620064 l 1.35972,0.254946 q 4.19245,0 8.97977,-4.362415 l 8.15829,7.365117 q -5.77879,8.158283 -19.31927,8.158283 l 0,0.254947 q -8.61152,-1.614661 -12.5207,-5.155582 -3.25765,-3.116011 -3.25765,-5.977076 l -0.25494,-0.283274 z m 11.95415,-16.316567 0.25494,0 10.08455,0.254946 0,-0.254946 -0.53822,-2.181208 0.25494,-0.283274 0,-0.254946 q -0.9348,-4.362416 -4.36241,-4.362416 l -0.53822,0 q -3.93751,0 -5.15558,7.081844 z m 17.95955,-15.523401 0,-0.53822 q 0.8215,-1.359714 1.89794,-1.359714 l 0,0.821494 q 0.53822,0 0.82149,-2.181208 l 0.82149,-0.283274 1.61466,0.53822 0.28328,0 -0.28328,-0.254946 0,-0.53822 0.8215,0.53822 0.28327,-0.283274 0.25495,0.283274 0,3.795868 -0.25495,0 -0.53822,-0.53822 0.25495,-0.283274 0,-0.254946 -0.25495,0 q -0.56655,0 -0.56655,1.359714 l -0.25494,0.283274 -0.8215,0 -0.82149,-0.821494 q 2.18121,-1.133095 2.18121,-1.642988 l 0,-0.283274 q -1.35972,0 -1.35972,-0.53822 l -2.1812,2.181208 -0.8215,-0.53822 -0.53822,0.53822 -0.53822,0 z m 3.79587,5.977076 0.56655,-0.53822 0.53822,0 0,0.53822 -1.10477,0 z m 2.18121,-1.359714 0,-0.254946 0.82149,0 0,0.821493 -0.28327,0 -0.53822,-0.566547 z m 0.28327,6.005403 0.53822,0.53822 0,-1.359714 -0.53822,0.53822 0,0.283274 z m 0,-4.362415 0.8215,0 0,0.53822 -0.28328,0 -0.53822,-0.53822 z m 0.8215,-10.622766 0,-0.53822 0.53822,-0.53822 0,1.07644 -0.53822,0 z"
         style="fill:#d38d23;fill-opacity:1"
         id="path3378" />
    </g>
    <g
       style="font-style:normal;font-variant:normal;font-weight:normal;font-stretch:normal;font-size:12px;line-height:125%;font-family:'Lucida Sans Unicode';-inkscape-font-specification:'Lucida Sans Unicode';text-align:start;letter-spacing:0px;word-spacing:0px;writing-mode:lr-tb;text-anchor:start;fill:#000000;fill-opacity:1;stroke:none"
       id="text3808">
      <path
         d="m 382.25171,68.687553 1.07812,0 0,9.117188 -1.07812,0 0,-9.117188 z"
         style="font-style:normal;font-variant:normal;font-weight:normal;font-stretch:normal;font-family:'MV Boli';-inkscape-font-specification:'MV Boli';fill:#363636;fill-opacity:1"
         id="path3381" />
      <path
         d="m 386.59937,69.056694 0,3.251953 -0.9961,0 0,-3.251953 0.9961,0 z"
         style="font-style:normal;font-variant:normal;font-weight:normal;font-stretch:normal;font-family:'MV Boli';-inkscape-font-specification:'MV Boli';fill:#363636;fill-opacity:1"
         id="path3383" />
      <path
         d="m 391.86694,74.505913 q -1.30664,0 -1.81054,0.298828 -0.50391,0.298828 -0.50391,1.019531 0,0.574219 0.375,0.914063 0.38086,0.333984 1.03125,0.333984 0.89648,0 1.43555,-0.632812 0.54492,-0.638672 0.54492,-1.69336 l 0,-0.240234 -1.07227,0 z m 2.15039,-0.445313 0,3.744141 -1.07812,0 0,-0.996094 q -0.36914,0.597656 -0.91992,0.884766 -0.55078,0.28125 -1.34766,0.28125 -1.00781,0 -1.60547,-0.5625 -0.59179,-0.56836 -0.59179,-1.517578 0,-1.107422 0.73828,-1.669922 0.74414,-0.5625 2.21484,-0.5625 l 1.51172,0 0,-0.105469 q 0,-0.744141 -0.49219,-1.148437 -0.48633,-0.410157 -1.37109,-0.410157 -0.5625,0 -1.09571,0.134766 -0.5332,0.134766 -1.02539,0.404297 l 0,-0.996094 q 0.5918,-0.228516 1.14844,-0.339844 0.55664,-0.117187 1.08399,-0.117187 1.42382,0 2.12695,0.738281 0.70312,0.738281 0.70312,2.238281 z"
         style="font-style:normal;font-variant:normal;font-weight:normal;font-stretch:normal;font-family:'MV Boli';-inkscape-font-specification:'MV Boli';fill:#363636;fill-opacity:1"
         id="path3385" />
      <path
         d="m 396.13257,75.214897 0,-3.972656 1.07812,0 0,3.931641 q 0,0.93164 0.36328,1.40039 0.36329,0.462891 1.08985,0.462891 0.87305,0 1.37695,-0.556641 0.50977,-0.55664 0.50977,-1.517578 l 0,-3.720703 1.07812,0 0,6.5625 -1.07812,0 0,-1.007813 q -0.39258,0.597657 -0.91407,0.890625 -0.51562,0.28711 -1.20117,0.28711 -1.13086,0 -1.71679,-0.703125 -0.58594,-0.703125 -0.58594,-2.056641 z m 2.71289,-4.130859 0,0 z"
         style="font-style:normal;font-variant:normal;font-weight:normal;font-stretch:normal;font-family:'MV Boli';-inkscape-font-specification:'MV Boli';fill:#363636;fill-opacity:1"
         id="path3387" />
      <path
         d="m 408.17944,72.238335 0,-3.550782 1.07813,0 0,9.117188 -1.07813,0 0,-0.984375 q -0.33984,0.585937 -0.86132,0.873047 -0.51563,0.28125 -1.24219,0.28125 -1.18946,0 -1.93946,-0.949219 -0.74414,-0.949219 -0.74414,-2.496094 0,-1.546875 0.74414,-2.496093 0.75,-0.949219 1.93946,-0.949219 0.72656,0 1.24219,0.287109 0.52148,0.28125 0.86132,0.867188 z m -3.67382,2.291015 q 0,1.189453 0.48632,1.869141 0.49219,0.673828 1.34766,0.673828 0.85547,0 1.34766,-0.673828 0.49218,-0.679688 0.49218,-1.869141 0,-1.189453 -0.49218,-1.863281 -0.49219,-0.679687 -1.34766,-0.679687 -0.85547,0 -1.34766,0.679687 -0.48632,0.673828 -0.48632,1.863281 z"
         style="font-style:normal;font-variant:normal;font-weight:normal;font-stretch:normal;font-family:'MV Boli';-inkscape-font-specification:'MV Boli';fill:#363636;fill-opacity:1"
         id="path3389" />
      <path
         d="m 411.47827,71.242241 1.07813,0 0,6.5625 -1.07813,0 0,-6.5625 z m 0,-2.554688 1.07813,0 0,1.365235 -1.07813,0 0,-1.365235 z"
         style="font-style:normal;font-variant:normal;font-weight:normal;font-stretch:normal;font-family:'MV Boli';-inkscape-font-specification:'MV Boli';fill:#363636;fill-opacity:1"
         id="path3391" />
      <path
         d="m 417.34937,71.9981 q -0.86719,0 -1.3711,0.679688 -0.5039,0.673828 -0.5039,1.851562 0,1.177735 0.49804,1.857422 0.50391,0.673828 1.37696,0.673828 0.86132,0 1.36523,-0.679687 0.50391,-0.679688 0.50391,-1.851563 0,-1.166015 -0.50391,-1.845703 -0.50391,-0.685547 -1.36523,-0.685547 z m 0,-0.914062 q 1.40625,0 2.20898,0.914062 0.80273,0.914063 0.80273,2.53125 0,1.611328 -0.80273,2.53125 -0.80273,0.914063 -2.20898,0.914063 -1.41211,0 -2.21485,-0.914063 -0.79687,-0.919922 -0.79687,-2.53125 0,-1.617187 0.79687,-2.53125 0.80274,-0.914062 2.21485,-0.914062 z"
         style="font-style:normal;font-variant:normal;font-weight:normal;font-stretch:normal;font-family:'MV Boli';-inkscape-font-specification:'MV Boli';fill:#363636;fill-opacity:1"
         id="path3393" />
      <path
         d="m 431.41772,73.843803 0,3.960938 -1.07812,0 0,-3.925781 q 0,-0.931641 -0.36328,-1.394532 -0.36328,-0.46289 -1.08985,-0.46289 -0.87304,0 -1.37695,0.55664 -0.5039,0.556641 -0.5039,1.517579 l 0,3.708984 -1.08399,0 0,-6.5625 1.08399,0 0,1.019531 q 0.38671,-0.591797 0.9082,-0.884765 0.52734,-0.292969 1.21289,-0.292969 1.13086,0 1.71094,0.703125 0.58007,0.697265 0.58007,2.05664 z"
         style="font-style:normal;font-variant:normal;font-weight:normal;font-stretch:normal;font-family:'MV Boli';-inkscape-font-specification:'MV Boli';fill:#363636;fill-opacity:1"
         id="path3395" />
      <path
         d="m 436.1228,71.9981 q -0.86718,0 -1.37109,0.679688 -0.50391,0.673828 -0.50391,1.851562 0,1.177735 0.49805,1.857422 0.50391,0.673828 1.37695,0.673828 0.86133,0 1.36524,-0.679687 0.5039,-0.679688 0.5039,-1.851563 0,-1.166015 -0.5039,-1.845703 Q 436.98413,71.9981 436.1228,71.9981 Z m 0,-0.914062 q 1.40625,0 2.20899,0.914062 0.80273,0.914063 0.80273,2.53125 0,1.611328 -0.80273,2.53125 -0.80274,0.914063 -2.20899,0.914063 -1.41211,0 -2.21484,-0.914063 -0.79688,-0.919922 -0.79688,-2.53125 0,-1.617187 0.79688,-2.53125 0.80273,-0.914062 2.21484,-0.914062 z"
         style="font-style:normal;font-variant:normal;font-weight:normal;font-stretch:normal;font-family:'MV Boli';-inkscape-font-specification:'MV Boli';fill:#363636;fill-opacity:1"
         id="path3397" />
      <path
         d="m 446.02515,72.502007 q 0.40429,-0.726563 0.96679,-1.072266 0.5625,-0.345703 1.32422,-0.345703 1.02539,0 1.58203,0.720703 0.55664,0.714844 0.55664,2.039062 l 0,3.960938 -1.08398,0 0,-3.925781 q 0,-0.94336 -0.33398,-1.400391 -0.33399,-0.457031 -1.01954,-0.457031 -0.83789,0 -1.32421,0.55664 -0.48633,0.556641 -0.48633,1.517579 l 0,3.708984 -1.08399,0 0,-3.925781 q 0,-0.949219 -0.33398,-1.400391 -0.33399,-0.457031 -1.03125,-0.457031 -0.82617,0 -1.3125,0.5625 -0.48633,0.55664 -0.48633,1.511719 l 0,3.708984 -1.08398,0 0,-6.5625 1.08398,0 0,1.019531 q 0.36914,-0.603515 0.88477,-0.890625 0.51562,-0.287109 1.22461,-0.287109 0.71484,0 1.21289,0.363281 0.5039,0.363281 0.74414,1.054688 z"
         style="font-style:normal;font-variant:normal;font-weight:normal;font-stretch:normal;font-family:'MV Boli';-inkscape-font-specification:'MV Boli';fill:#363636;fill-opacity:1"
         id="path3399" />
      <path
         d="m 455.59351,74.505913 q -1.30664,0 -1.81055,0.298828 -0.50391,0.298828 -0.50391,1.019531 0,0.574219 0.375,0.914063 0.38086,0.333984 1.03125,0.333984 0.89649,0 1.43555,-0.632812 0.54492,-0.638672 0.54492,-1.69336 l 0,-0.240234 -1.07226,0 z m 2.15039,-0.445313 0,3.744141 -1.07813,0 0,-0.996094 q -0.36914,0.597656 -0.91992,0.884766 -0.55078,0.28125 -1.34766,0.28125 -1.00781,0 -1.60547,-0.5625 -0.59179,-0.56836 -0.59179,-1.517578 0,-1.107422 0.73828,-1.669922 0.74414,-0.5625 2.21484,-0.5625 l 1.51172,0 0,-0.105469 q 0,-0.744141 -0.49219,-1.148437 -0.48632,-0.410157 -1.37109,-0.410157 -0.5625,0 -1.0957,0.134766 -0.53321,0.134766 -1.02539,0.404297 l 0,-0.996094 q 0.59179,-0.228516 1.14843,-0.339844 0.55664,-0.117187 1.08399,-0.117187 1.42383,0 2.12695,0.738281 0.70313,0.738281 0.70313,2.238281 z"
         style="font-style:normal;font-variant:normal;font-weight:normal;font-stretch:normal;font-family:'MV Boli';-inkscape-font-specification:'MV Boli';fill:#363636;fill-opacity:1"
         id="path3401" />
      <path
         d="m 464.28882,72.238335 0,-3.550782 1.07812,0 0,9.117188 -1.07812,0 0,-0.984375 q -0.33985,0.585937 -0.86133,0.873047 -0.51562,0.28125 -1.24219,0.28125 -1.18945,0 -1.93945,-0.949219 -0.74414,-0.949219 -0.74414,-2.496094 0,-1.546875 0.74414,-2.496093 0.75,-0.949219 1.93945,-0.949219 0.72657,0 1.24219,0.287109 0.52148,0.28125 0.86133,0.867188 z m -3.67383,2.291015 q 0,1.189453 0.48633,1.869141 0.49219,0.673828 1.34765,0.673828 0.85547,0 1.34766,-0.673828 0.49219,-0.679688 0.49219,-1.869141 0,-1.189453 -0.49219,-1.863281 -0.49219,-0.679687 -1.34766,-0.679687 -0.85546,0 -1.34765,0.679687 -0.48633,0.673828 -0.48633,1.863281 z"
         style="font-style:normal;font-variant:normal;font-weight:normal;font-stretch:normal;font-family:'MV Boli';-inkscape-font-specification:'MV Boli';fill:#363636;fill-opacity:1"
         id="path3403" />
      <path
         d="m 473.20093,74.25396 0,0.527343 -4.95703,0 q 0.0703,1.113282 0.66797,1.699219 0.60351,0.580078 1.67578,0.580078 0.62109,0 1.20117,-0.152343 0.58594,-0.152344 1.16015,-0.457032 l 0,1.019532 q -0.58007,0.246093 -1.18945,0.375 -0.60937,0.128906 -1.23633,0.128906 -1.57031,0 -2.49023,-0.914063 -0.91406,-0.914062 -0.91406,-2.472656 0,-1.611328 0.86718,-2.554687 0.87305,-0.949219 2.34961,-0.949219 1.32422,0 2.0918,0.855469 0.77344,0.849609 0.77344,2.314453 z m -1.07813,-0.316407 q -0.0117,-0.884765 -0.49804,-1.412109 -0.48047,-0.527344 -1.27735,-0.527344 -0.90234,0 -1.44726,0.509766 -0.53907,0.509766 -0.6211,1.435547 l 3.84375,-0.0059 z"
         style="font-style:normal;font-variant:normal;font-weight:normal;font-stretch:normal;font-family:'MV Boli';-inkscape-font-specification:'MV Boli';fill:#363636;fill-opacity:1"
         id="path3405" />
      <path
         d="m 475.24585,76.31646 1.23633,0 0,1.007812 -0.96094,1.875 -0.75586,0 0.48047,-1.875 0,-1.007812 z"
         style="font-style:normal;font-variant:normal;font-weight:normal;font-stretch:normal;font-family:'MV Boli';-inkscape-font-specification:'MV Boli';fill:#363636;fill-opacity:1"
         id="path3407" />
      <path
         d="m 487.72046,72.502007 q 0.4043,-0.726563 0.9668,-1.072266 0.5625,-0.345703 1.32421,-0.345703 1.0254,0 1.58204,0.720703 0.55664,0.714844 0.55664,2.039062 l 0,3.960938 -1.08399,0 0,-3.925781 q 0,-0.94336 -0.33398,-1.400391 -0.33399,-0.457031 -1.01953,-0.457031 -0.83789,0 -1.32422,0.55664 -0.48633,0.556641 -0.48633,1.517579 l 0,3.708984 -1.08398,0 0,-3.925781 q 0,-0.949219 -0.33399,-1.400391 -0.33398,-0.457031 -1.03125,-0.457031 -0.82617,0 -1.3125,0.5625 -0.48633,0.55664 -0.48633,1.511719 l 0,3.708984 -1.08398,0 0,-6.5625 1.08398,0 0,1.019531 q 0.36914,-0.603515 0.88477,-0.890625 0.51562,-0.287109 1.22461,-0.287109 0.71484,0 1.21289,0.363281 0.5039,0.363281 0.74414,1.054688 z"
         style="font-style:normal;font-variant:normal;font-weight:normal;font-stretch:normal;font-family:'MV Boli';-inkscape-font-specification:'MV Boli';fill:#363636;fill-opacity:1"
         id="path3409" />
      <path
         d="m 497.28882,74.505913 q -1.30664,0 -1.81055,0.298828 -0.5039,0.298828 -0.5039,1.019531 0,0.574219 0.375,0.914063 0.38085,0.333984 1.03125,0.333984 0.89648,0 1.43554,-0.632812 0.54492,-0.638672 0.54492,-1.69336 l 0,-0.240234 -1.07226,0 z m 2.15039,-0.445313 0,3.744141 -1.07813,0 0,-0.996094 q -0.36914,0.597656 -0.91992,0.884766 -0.55078,0.28125 -1.34765,0.28125 -1.00782,0 -1.60547,-0.5625 -0.5918,-0.56836 -0.5918,-1.517578 0,-1.107422 0.73828,-1.669922 0.74414,-0.5625 2.21485,-0.5625 l 1.51171,0 0,-0.105469 q 0,-0.744141 -0.49218,-1.148437 -0.48633,-0.410157 -1.3711,-0.410157 -0.5625,0 -1.0957,0.134766 -0.5332,0.134766 -1.02539,0.404297 l 0,-0.996094 q 0.5918,-0.228516 1.14844,-0.339844 0.55664,-0.117187 1.08398,-0.117187 1.42383,0 2.12695,0.738281 0.70313,0.738281 0.70313,2.238281 z"
         style="font-style:normal;font-variant:normal;font-weight:normal;font-stretch:normal;font-family:'MV Boli';-inkscape-font-specification:'MV Boli';fill:#363636;fill-opacity:1"
         id="path3411" />
      <path
         d="m 501.66577,71.242241 1.07813,0 0,6.5625 -1.07813,0 0,-6.5625 z m 0,-2.554688 1.07813,0 0,1.365235 -1.07813,0 0,-1.365235 z"
         style="font-style:normal;font-variant:normal;font-weight:normal;font-stretch:normal;font-family:'MV Boli';-inkscape-font-specification:'MV Boli';fill:#363636;fill-opacity:1"
         id="path3413" />
      <path
         d="m 509.17749,71.4356 0,1.019532 q -0.45703,-0.234375 -0.94922,-0.351563 -0.49219,-0.117187 -1.01953,-0.117187 -0.80273,0 -1.20703,0.246093 -0.39844,0.246094 -0.39844,0.738282 0,0.375 0.28711,0.591796 0.28711,0.210938 1.1543,0.404297 l 0.36914,0.08203 q 1.14844,0.246093 1.6289,0.697265 0.48633,0.445313 0.48633,1.248047 0,0.914063 -0.72656,1.447266 -0.7207,0.533203 -1.98633,0.533203 -0.52734,0 -1.10156,-0.105469 -0.56836,-0.09961 -1.20117,-0.304687 l 0,-1.113282 q 0.59765,0.310547 1.17773,0.46875 0.58008,0.152344 1.14844,0.152344 0.76172,0 1.17187,-0.257812 0.41016,-0.263672 0.41016,-0.738282 0,-0.439453 -0.29883,-0.673828 -0.29297,-0.234375 -1.29492,-0.451172 l -0.375,-0.08789 q -1.00195,-0.210938 -1.44726,-0.644532 -0.44532,-0.439453 -0.44532,-1.201171 0,-0.925782 0.65625,-1.429688 0.65625,-0.503906 1.86328,-0.503906 0.59766,0 1.125,0.08789 0.52735,0.08789 0.97266,0.263672 z"
         style="font-style:normal;font-variant:normal;font-weight:normal;font-stretch:normal;font-family:'MV Boli';-inkscape-font-specification:'MV Boli';fill:#363636;fill-opacity:1"
         id="path3415" />
      <path
         d="m 516.11499,76.820366 0,3.480469 -1.08398,0 0,-9.058594 1.08398,0 0,0.996094 q 0.33984,-0.585938 0.85547,-0.867188 0.52148,-0.287109 1.24219,-0.287109 1.19531,0 1.93945,0.949219 0.75,0.949218 0.75,2.496093 0,1.546875 -0.75,2.496094 -0.74414,0.949219 -1.93945,0.949219 -0.72071,0 -1.24219,-0.28125 -0.51563,-0.28711 -0.85547,-0.873047 z m 3.66797,-2.291016 q 0,-1.189453 -0.49219,-1.863281 -0.48633,-0.679687 -1.3418,-0.679687 -0.85546,0 -1.34765,0.679687 -0.48633,0.673828 -0.48633,1.863281 0,1.189453 0.48633,1.869141 0.49219,0.673828 1.34765,0.673828 0.85547,0 1.3418,-0.673828 0.49219,-0.679688 0.49219,-1.869141 z"
         style="font-style:normal;font-variant:normal;font-weight:normal;font-stretch:normal;font-family:'MV Boli';-inkscape-font-specification:'MV Boli';fill:#363636;fill-opacity:1"
         id="path3417" />
      <path
         d="m 525.67163,74.505913 q -1.30664,0 -1.81055,0.298828 -0.5039,0.298828 -0.5039,1.019531 0,0.574219 0.375,0.914063 0.38086,0.333984 1.03125,0.333984 0.89648,0 1.43554,-0.632812 0.54493,-0.638672 0.54493,-1.69336 l 0,-0.240234 -1.07227,0 z m 2.15039,-0.445313 0,3.744141 -1.07812,0 0,-0.996094 q -0.36914,0.597656 -0.91993,0.884766 -0.55078,0.28125 -1.34765,0.28125 -1.00781,0 -1.60547,-0.5625 -0.5918,-0.56836 -0.5918,-1.517578 0,-1.107422 0.73828,-1.669922 0.74414,-0.5625 2.21485,-0.5625 l 1.51172,0 0,-0.105469 q 0,-0.744141 -0.49219,-1.148437 -0.48633,-0.410157 -1.37109,-0.410157 -0.5625,0 -1.09571,0.134766 -0.5332,0.134766 -1.02539,0.404297 l 0,-0.996094 q 0.5918,-0.228516 1.14844,-0.339844 0.55664,-0.117187 1.08398,-0.117187 1.42383,0 2.12696,0.738281 0.70312,0.738281 0.70312,2.238281 z"
         style="font-style:normal;font-variant:normal;font-weight:normal;font-stretch:normal;font-family:'MV Boli';-inkscape-font-specification:'MV Boli';fill:#363636;fill-opacity:1"
         id="path3419" />
      <path
         d="m 534.23218,71.4356 0,1.019532 q -0.45703,-0.234375 -0.94922,-0.351563 -0.49219,-0.117187 -1.01953,-0.117187 -0.80274,0 -1.20703,0.246093 -0.39844,0.246094 -0.39844,0.738282 0,0.375 0.28711,0.591796 0.28711,0.210938 1.1543,0.404297 l 0.36914,0.08203 q 1.14843,0.246093 1.6289,0.697265 0.48633,0.445313 0.48633,1.248047 0,0.914063 -0.72656,1.447266 -0.72071,0.533203 -1.98633,0.533203 -0.52734,0 -1.10156,-0.105469 -0.56836,-0.09961 -1.20117,-0.304687 l 0,-1.113282 q 0.59765,0.310547 1.17773,0.46875 0.58008,0.152344 1.14844,0.152344 0.76172,0 1.17187,-0.257812 0.41016,-0.263672 0.41016,-0.738282 0,-0.439453 -0.29883,-0.673828 -0.29297,-0.234375 -1.29492,-0.451172 l -0.375,-0.08789 q -1.00195,-0.210938 -1.44727,-0.644532 -0.44531,-0.439453 -0.44531,-1.201171 0,-0.925782 0.65625,-1.429688 0.65625,-0.503906 1.86328,-0.503906 0.59766,0 1.125,0.08789 0.52735,0.08789 0.97266,0.263672 z"
         style="font-style:normal;font-variant:normal;font-weight:normal;font-stretch:normal;font-family:'MV Boli';-inkscape-font-specification:'MV Boli';fill:#363636;fill-opacity:1"
         id="path3421" />
      <path
         d="m 540.77124,74.52935 q 0,1.189453 0.48633,1.869141 0.49219,0.673828 1.34765,0.673828 0.85547,0 1.34766,-0.673828 0.49219,-0.679688 0.49219,-1.869141 0,-1.189453 -0.49219,-1.863281 -0.49219,-0.679687 -1.34766,-0.679687 -0.85546,0 -1.34765,0.679687 -0.48633,0.673828 -0.48633,1.863281 z m 3.67383,2.291016 q -0.33985,0.585937 -0.86133,0.873047 -0.51562,0.28125 -1.24219,0.28125 -1.18945,0 -1.93945,-0.949219 -0.74414,-0.949219 -0.74414,-2.496094 0,-1.546875 0.74414,-2.496093 0.75,-0.949219 1.93945,-0.949219 0.72657,0 1.24219,0.287109 0.52148,0.28125 0.86133,0.867188 l 0,-0.996094 1.07812,0 0,9.058594 -1.07812,0 0,-3.480469 z"
         style="font-style:normal;font-variant:normal;font-weight:normal;font-stretch:normal;font-family:'MV Boli';-inkscape-font-specification:'MV Boli';fill:#363636;fill-opacity:1"
         id="path3423" />
      <path
         d="m 547.63257,75.214897 0,-3.972656 1.07812,0 0,3.931641 q 0,0.93164 0.36328,1.40039 0.36329,0.462891 1.08985,0.462891 0.87305,0 1.37695,-0.556641 0.50977,-0.55664 0.50977,-1.517578 l 0,-3.720703 1.07812,0 0,6.5625 -1.07812,0 0,-1.007813 q -0.39258,0.597657 -0.91407,0.890625 -0.51562,0.28711 -1.20117,0.28711 -1.13086,0 -1.71679,-0.703125 -0.58594,-0.703125 -0.58594,-2.056641 z m 2.71289,-4.130859 0,0 z"
         style="font-style:normal;font-variant:normal;font-weight:normal;font-stretch:normal;font-family:'MV Boli';-inkscape-font-specification:'MV Boli';fill:#363636;fill-opacity:1"
         id="path3425" />
      <path
         d="m 560.97437,74.25396 0,0.527343 -4.95704,0 q 0.0703,1.113282 0.66797,1.699219 0.60352,0.580078 1.67578,0.580078 0.6211,0 1.20118,-0.152343 0.58593,-0.152344 1.16015,-0.457032 l 0,1.019532 q -0.58008,0.246093 -1.18945,0.375 -0.60938,0.128906 -1.23633,0.128906 -1.57031,0 -2.49023,-0.914063 -0.91407,-0.914062 -0.91407,-2.472656 0,-1.611328 0.86719,-2.554687 0.87305,-0.949219 2.34961,-0.949219 1.32422,0 2.0918,0.855469 0.77344,0.849609 0.77344,2.314453 z m -1.07813,-0.316407 q -0.0117,-0.884765 -0.49805,-1.412109 -0.48047,-0.527344 -1.27734,-0.527344 -0.90234,0 -1.44727,0.509766 -0.53906,0.509766 -0.62109,1.435547 l 3.84375,-0.0059 z"
         style="font-style:normal;font-variant:normal;font-weight:normal;font-stretch:normal;font-family:'MV Boli';-inkscape-font-specification:'MV Boli';fill:#363636;fill-opacity:1"
         id="path3427" />
      <path
         d="m 567.2439,76.31646 1.18945,0 0,1.488281 -1.18945,0 0,-1.488281 z m 0,-7.259766 1.18945,0 0,3.837891 -0.11719,2.091797 -0.94922,0 -0.12304,-2.091797 0,-3.837891 z"
         style="font-style:normal;font-variant:normal;font-weight:normal;font-stretch:normal;font-family:'MV Boli';-inkscape-font-specification:'MV Boli';fill:#363636;fill-opacity:1"
         id="path3429" />
    </g>
  </g>
</svg>
